<svg width="994" height="1117" viewBox="0 0 994 1117" fill="none" xmlns="http://www.w3.org/2000/svg">
<mask id="mask0_267_977" style="mask-type:alpha" maskUnits="userSpaceOnUse" x="0" y="0" width="994" height="1117">
<path d="M994 0H0V1117H994V0Z" fill="#1F1F1F"/>
</mask>
<g mask="url(#mask0_267_977)">
<path d="M994 0H0V1117H994V0Z" fill="#3705A0" fill-opacity="0.6"/>
<path d="M407.57 1104.82C675.952 1142.15 895.929 1155.07 898.903 1133.69C901.878 1112.3 686.723 1064.7 418.341 1027.38C149.96 990.05 -70.0175 977.128 -72.9919 998.514C-75.9663 1019.9 139.189 1067.5 407.57 1104.82Z" fill="white" fill-opacity="0.2"/>
<path d="M877.695 1082.96L585.654 1042.34L690.993 711.717L909.373 742.089L877.695 1082.96Z" fill="#666666"/>
<path d="M877.697 1082.96L852.09 1079.4L884.829 738.675L909.375 742.089L877.697 1082.96Z" fill="#4D4D4D"/>
<path d="M-85.0874 949.053L41.1457 966.019L167.304 983.344L419.642 1018.02L671.866 1053.52L797.965 1071.28L924.037 1089.4L797.8 1072.46L671.645 1055.11L419.307 1020.43L167.083 984.936L40.9813 967.201L-85.0874 949.053Z" fill="#263238"/>
<path d="M982.22 665.024L742.598 631.697L721.337 784.566L960.959 817.892L982.22 665.024Z" fill="#333333"/>
<path d="M962.27 819.623L719.61 785.873L741.293 629.967L983.954 663.716L962.27 819.623ZM723.07 783.258L959.775 816.179L980.614 666.349L743.909 633.428L723.07 783.258Z" fill="#EBEBEB"/>
<path d="M982.22 665.024L742.598 631.697L738.577 660.607L978.2 693.934L982.22 665.024Z" fill="#F2F2F2"/>
<path d="M979.51 695.664L736.85 661.915L741.293 629.967L983.954 663.716L979.51 695.664ZM740.31 659.3L977.015 692.22L980.614 666.349L743.909 633.428L740.31 659.3Z" fill="#EBEBEB"/>
<path d="M767.711 650.133C767.512 651.563 766.893 652.903 765.933 653.982C764.973 655.061 763.714 655.831 762.316 656.195C760.918 656.558 759.444 656.499 758.079 656.025C756.715 655.551 755.522 654.683 754.651 653.53C753.78 652.378 753.27 650.993 753.186 649.551C753.102 648.109 753.448 646.675 754.179 645.429C754.911 644.184 755.995 643.183 757.295 642.553C758.595 641.924 760.053 641.694 761.483 641.893C763.402 642.16 765.136 643.178 766.304 644.723C767.471 646.268 767.978 648.214 767.711 650.133Z" fill="#A6A6A6"/>
<path d="M797.415 654.264C797.216 655.695 796.597 657.035 795.637 658.114C794.677 659.193 793.418 659.963 792.02 660.326C790.622 660.69 789.148 660.631 787.784 660.157C786.419 659.682 785.226 658.814 784.355 657.662C783.484 656.51 782.975 655.125 782.891 653.683C782.807 652.241 783.152 650.806 783.884 649.561C784.615 648.315 785.699 647.314 786.999 646.685C788.299 646.056 789.757 645.826 791.188 646.025C793.106 646.292 794.84 647.31 796.008 648.855C797.176 650.4 797.682 652.346 797.415 654.264Z" fill="#EBEBEB"/>
<path d="M827.124 658.396C826.925 659.827 826.306 661.166 825.346 662.245C824.386 663.324 823.127 664.094 821.729 664.458C820.331 664.822 818.857 664.763 817.493 664.288C816.128 663.814 814.935 662.946 814.064 661.793C813.193 660.641 812.684 659.256 812.6 657.815C812.516 656.373 812.861 654.938 813.593 653.692C814.324 652.447 815.408 651.446 816.708 650.817C818.008 650.187 819.466 649.958 820.897 650.156C822.815 650.423 824.549 651.441 825.717 652.987C826.885 654.532 827.391 656.478 827.124 658.396Z" fill="white"/>
<path d="M775.38 724C776.613 716.293 780.818 709.377 787.092 704.735C793.367 700.094 801.211 698.097 808.941 699.174C815.679 700.061 821.926 703.179 826.684 708.032C827.485 708.94 827.918 710.114 827.899 711.325C827.881 712.536 827.412 713.697 826.584 714.58C825.687 715.398 824.516 715.851 823.302 715.85C822.089 715.85 820.919 715.395 820.022 714.577C816.773 711.076 812.395 708.832 807.656 708.236C802.268 707.531 796.811 708.888 792.381 712.035C788.126 715.221 785.309 719.965 784.549 725.226C784.186 727.835 784.346 730.49 785.022 733.036C785.698 735.582 786.875 737.968 788.484 740.053C791.891 744.284 796.772 747.07 802.147 747.852C806.845 748.587 811.652 747.656 815.736 745.22C816.822 744.677 818.071 744.559 819.239 744.89C820.407 745.221 821.409 745.976 822.05 747.007C822.605 748.083 822.74 749.328 822.427 750.497C822.114 751.667 821.377 752.679 820.358 753.334C814.458 756.711 807.597 758.016 800.869 757.038C793.132 755.983 786.122 751.926 781.353 745.744C776.583 739.561 774.438 731.751 775.38 724Z" fill="#EBEBEB"/>
<path d="M851.88 739.801L840.354 738.198C839.74 738.159 839.14 737.993 838.592 737.711C838.044 737.429 837.561 737.037 837.171 736.559C836.782 736.082 836.495 735.529 836.329 734.936C836.163 734.343 836.121 733.722 836.206 733.111C836.291 732.501 836.501 731.915 836.823 731.39C837.144 730.864 837.571 730.411 838.076 730.058C838.58 729.705 839.153 729.46 839.756 729.338C840.36 729.216 840.983 729.22 841.585 729.349L853.014 730.939L854.58 719.679C854.749 718.464 855.394 717.366 856.372 716.626C857.351 715.886 858.584 715.566 859.799 715.735C861.014 715.904 862.112 716.548 862.851 717.527C863.591 718.506 863.912 719.738 863.743 720.953L862.187 732.141L873.64 733.734C874.745 733.972 875.72 734.619 876.368 735.546C877.016 736.472 877.29 737.61 877.134 738.73C876.978 739.85 876.405 740.87 875.528 741.584C874.652 742.299 873.537 742.656 872.409 742.583L860.956 740.99L859.383 752.298C859.214 753.513 858.569 754.612 857.591 755.351C856.612 756.091 855.38 756.411 854.165 756.242C852.95 756.073 851.852 755.429 851.112 754.45C850.372 753.471 850.052 752.239 850.221 751.024L851.88 739.801Z" fill="#EBEBEB"/>
<path d="M901.793 746.743L890.364 745.153C889.749 745.113 889.149 744.947 888.601 744.665C888.054 744.383 887.57 743.991 887.181 743.514C886.791 743.036 886.505 742.484 886.339 741.891C886.173 741.297 886.131 740.676 886.216 740.066C886.3 739.456 886.51 738.87 886.832 738.344C887.154 737.819 887.58 737.366 888.085 737.013C888.59 736.66 889.162 736.414 889.766 736.292C890.37 736.171 890.992 736.175 891.594 736.304L903.023 737.894L904.589 726.633C904.664 726.027 904.859 725.441 905.164 724.911C905.468 724.381 905.876 723.917 906.363 723.547C906.85 723.177 907.405 722.909 907.998 722.757C908.59 722.606 909.207 722.575 909.811 722.665C911.033 722.835 912.136 723.483 912.88 724.467C913.623 725.451 913.946 726.69 913.776 727.911L912.22 739.099L923.577 740.678C924.682 740.916 925.657 741.564 926.305 742.49C926.953 743.417 927.227 744.554 927.071 745.675C926.915 746.795 926.341 747.814 925.465 748.529C924.589 749.244 923.474 749.6 922.346 749.527L910.917 747.938L909.344 759.246C909.26 759.851 909.058 760.433 908.748 760.96C908.439 761.487 908.029 761.947 907.542 762.315C907.055 762.683 906.5 762.952 905.909 763.106C905.318 763.259 904.703 763.295 904.098 763.211C903.492 763.133 902.907 762.935 902.379 762.628C901.85 762.32 901.389 761.91 901.022 761.422C900.654 760.933 900.389 760.376 900.24 759.783C900.092 759.19 900.064 758.573 900.158 757.969L901.793 746.743Z" fill="#EBEBEB"/>
<path d="M911.59 356.567L511.962 300.986L466.318 629.171L865.946 684.751L911.59 356.567Z" fill="#333333"/>
<path d="M866.974 685.715L464.308 629.712L510.375 298.489L913.041 354.492L866.974 685.715ZM467.769 627.096L864.359 682.254L909.584 357.083L512.994 301.925L467.769 627.096Z" fill="#EBEBEB"/>
<path d="M911.312 355.775L511.684 300.195L507.664 329.105L907.291 384.685L911.312 355.775Z" fill="#CCCCCC"/>
<path d="M908.601 386.416L505.935 330.413L510.375 298.489L913.041 354.492L908.601 386.416ZM509.396 327.797L905.985 382.955L909.584 357.083L512.994 301.925L509.396 327.797Z" fill="#EBEBEB"/>
<path d="M536.769 318.652C536.57 320.083 535.951 321.422 534.991 322.501C534.031 323.58 532.772 324.35 531.374 324.714C529.976 325.078 528.502 325.019 527.137 324.545C525.773 324.07 524.58 323.202 523.709 322.05C522.838 320.897 522.328 319.513 522.245 318.071C522.161 316.629 522.506 315.194 523.237 313.949C523.969 312.703 525.053 311.702 526.353 311.073C527.653 310.443 529.111 310.214 530.541 310.413C532.46 310.68 534.194 311.698 535.362 313.243C536.529 314.788 537.036 316.734 536.769 318.652Z" fill="#999999"/>
<path d="M566.473 322.783C566.274 324.214 565.656 325.553 564.695 326.632C563.735 327.711 562.476 328.481 561.078 328.845C559.681 329.209 558.206 329.15 556.842 328.676C555.477 328.201 554.284 327.333 553.413 326.181C552.543 325.028 552.033 323.644 551.949 322.202C551.865 320.76 552.21 319.325 552.942 318.08C553.673 316.834 554.757 315.833 556.057 315.204C557.358 314.574 558.815 314.345 560.246 314.544C562.164 314.811 563.898 315.829 565.066 317.374C566.234 318.919 566.74 320.865 566.473 322.783Z" fill="#E6E6E6"/>
<path d="M596.201 326.918C596.002 328.349 595.383 329.689 594.423 330.768C593.463 331.847 592.204 332.617 590.806 332.98C589.408 333.344 587.934 333.285 586.57 332.811C585.205 332.336 584.012 331.468 583.141 330.316C582.27 329.164 581.761 327.779 581.677 326.337C581.593 324.895 581.938 323.46 582.67 322.215C583.401 320.969 584.485 319.968 585.785 319.339C587.085 318.71 588.543 318.48 589.973 318.679C591.892 318.946 593.626 319.964 594.794 321.509C595.962 323.054 596.468 325 596.201 326.918Z" fill="white"/>
<path d="M546.13 393.074L530.674 390.924L529.889 396.567L545.345 398.716L546.13 393.074Z" fill="#E6E6E6"/>
<path d="M734.681 419.298L557.388 394.64L556.603 400.282L733.897 424.94L734.681 419.298Z" fill="#E6E6E6"/>
<path d="M773.524 424.701L744.18 420.619L743.396 426.262L772.74 430.343L773.524 424.701Z" fill="#3705A0"/>
<path d="M830.174 509.582L800.805 505.497L800.021 511.139L829.389 515.224L830.174 509.582Z" fill="#E6E6E6"/>
<path d="M830.951 433.439L780.196 426.38L779.411 432.022L830.166 439.081L830.951 433.439Z" fill="#999999"/>
<path d="M559.482 410.342L544.026 408.192L543.241 413.834L558.697 415.984L559.482 410.342Z" fill="#E6E6E6"/>
<path d="M686.975 428.825L570.636 412.645L569.851 418.287L686.19 434.467L686.975 428.825Z" fill="#999999"/>
<path d="M794.116 505.319L726.001 495.845L725.216 501.487L793.332 510.961L794.116 505.319Z" fill="#999999"/>
<path d="M660.112 470.544L548.981 455.088L548.196 460.73L659.327 476.186L660.112 470.544Z" fill="#A6A6A6"/>
<path d="M646.211 437.79L568.258 426.948L567.473 432.59L645.426 443.432L646.211 437.79Z" fill="#3705A0"/>
<path d="M787.512 473.605L757.782 469.47L756.997 475.112L786.727 479.247L787.512 473.605Z" fill="#999999"/>
<path d="M779.636 457.098L655.147 439.784L654.363 445.427L778.852 462.741L779.636 457.098Z" fill="#999999"/>
<path d="M695.485 490.849L546.885 470.182L546.1 475.824L694.701 496.491L695.485 490.849Z" fill="#3705A0"/>
<path d="M855.068 451.452L774.535 440.251L773.75 445.893L854.283 457.094L855.068 451.452Z" fill="#3705A0"/>
<path d="M768.146 439.362L694.003 429.05L693.218 434.692L767.362 445.004L768.146 439.362Z" fill="#E6E6E6"/>
<path d="M835.248 464.081L785.216 457.122L784.432 462.764L834.463 469.723L835.248 464.081Z" fill="#E6E6E6"/>
<path d="M557.381 425.435L541.926 423.286L541.141 428.928L556.596 431.077L557.381 425.435Z" fill="#E6E6E6"/>
<path d="M540.101 439.195L524.646 437.046L523.861 442.688L539.316 444.838L540.101 439.195Z" fill="#999999"/>
<path d="M642.421 452.673L551.086 439.97L550.301 445.612L641.636 458.315L642.421 452.673Z" fill="#E6E6E6"/>
<path d="M651.186 500.099L559.851 487.396L559.066 493.038L650.401 505.741L651.186 500.099Z" fill="#E6E6E6"/>
<path d="M797.515 535.861L728.073 526.203L727.288 531.845L796.73 541.503L797.515 535.861Z" fill="#3705A0"/>
<path d="M750.215 513.872L658.614 501.132L657.829 506.774L749.43 519.514L750.215 513.872Z" fill="#3705A0"/>
<path d="M720.092 525.093L640.354 514.003L639.57 519.645L719.307 530.735L720.092 525.093Z" fill="#E6E6E6"/>
<path d="M584.479 506.983L558.028 503.305L557.243 508.947L583.694 512.626L584.479 506.983Z" fill="#999999"/>
<path d="M765.122 485.149L666.408 471.42L665.624 477.062L764.337 490.791L765.122 485.149Z" fill="#E6E6E6"/>
<path d="M834.322 494.773L771.511 486.037L770.726 491.679L833.537 500.415L834.322 494.773Z" fill="#3705A0"/>
<path d="M750.298 467.676L651.705 453.964L650.92 459.606L749.513 473.318L750.298 467.676Z" fill="#3705A0"/>
<path d="M537.723 453.522L522.267 451.372L521.482 457.014L536.938 459.164L537.723 453.522Z" fill="#E6E6E6"/>
<path d="M535.622 468.616L520.167 466.466L519.382 472.108L534.837 474.258L535.622 468.616Z" fill="#E6E6E6"/>
<path d="M549.257 486.674L533.801 484.525L533.017 490.167L548.472 492.316L549.257 486.674Z" fill="#999999"/>
<path d="M546.874 501.002L531.418 498.852L530.634 504.494L546.089 506.644L546.874 501.002Z" fill="#E6E6E6"/>
<path d="M529.66 511.486L514.204 509.337L513.419 514.979L528.875 517.128L529.66 511.486Z" fill="#E6E6E6"/>
<path d="M718.216 537.711L540.922 513.053L540.138 518.695L717.431 543.353L718.216 537.711Z" fill="#E6E6E6"/>
<path d="M543.012 528.754L527.556 526.604L526.771 532.246L542.227 534.396L543.012 528.754Z" fill="#E6E6E6"/>
<path d="M670.505 547.238L554.166 531.057L553.381 536.699L669.72 552.88L670.505 547.238Z" fill="#999999"/>
<path d="M643.924 589.748L532.793 574.292L532.009 579.934L643.14 595.39L643.924 589.748Z" fill="#999999"/>
<path d="M629.736 556.226L551.783 545.384L550.998 551.026L628.951 561.868L629.736 556.226Z" fill="#3705A0"/>
<path d="M763.162 575.535L638.673 558.221L637.888 563.863L762.377 581.177L763.162 575.535Z" fill="#999999"/>
<path d="M679.016 609.262L530.415 588.594L529.63 594.237L678.231 614.904L679.016 609.262Z" fill="#3705A0"/>
<path d="M838.598 569.864L758.065 558.663L757.28 564.306L837.813 575.506L838.598 569.864Z" fill="#3705A0"/>
<path d="M751.676 557.775L677.533 547.463L676.748 553.105L750.892 563.417L751.676 557.775Z" fill="#E6E6E6"/>
<path d="M818.773 582.518L768.742 575.559L767.957 581.201L817.989 588.16L818.773 582.518Z" fill="#E6E6E6"/>
<path d="M540.911 543.872L525.456 541.723L524.671 547.365L540.126 549.514L540.911 543.872Z" fill="#E6E6E6"/>
<path d="M523.636 557.607L508.18 555.458L507.395 561.1L522.851 563.25L523.636 557.607Z" fill="#999999"/>
<path d="M625.951 571.086L534.616 558.383L533.831 564.025L625.167 576.728L625.951 571.086Z" fill="#E6E6E6"/>
<path d="M748.652 603.561L649.938 589.832L649.154 595.474L747.867 609.203L748.652 603.561Z" fill="#E6E6E6"/>
<path d="M733.828 586.089L635.235 572.376L634.45 578.019L733.043 591.731L733.828 586.089Z" fill="#3705A0"/>
<path d="M521.253 571.934L505.797 569.785L505.012 575.427L520.468 577.577L521.253 571.934Z" fill="#E6E6E6"/>
<path d="M542.288 377.399C542.504 377.687 542.598 378.049 542.549 378.406C542.499 378.763 542.31 379.086 542.023 379.304C541.733 379.515 541.372 379.604 541.017 379.555C540.662 379.506 540.34 379.321 540.118 379.039L535.004 372.159C534.997 372.118 535.003 372.076 535.021 372.038C535.019 371.981 535.027 371.924 535.045 371.869C535.041 371.82 535.048 371.771 535.065 371.725L535.085 371.58C535.085 371.58 535.085 371.58 535.105 371.435C535.125 371.291 535.105 371.435 535.105 371.435L535.125 371.291C535.123 371.234 535.131 371.176 535.148 371.122C535.148 371.122 535.172 370.953 535.175 370.929C535.179 370.905 535.175 370.929 535.175 370.929C535.213 370.869 535.272 370.825 535.34 370.805L542.137 365.581C542.428 365.37 542.788 365.28 543.143 365.33C543.498 365.379 543.82 365.564 544.042 365.846C544.259 366.134 544.352 366.496 544.303 366.853C544.253 367.21 544.064 367.532 543.777 367.75L538.058 372.116L542.288 377.399Z" fill="#F2F2F2"/>
<path d="M547.593 378.826L554.521 367.181C554.599 367.048 554.703 366.932 554.826 366.839C554.949 366.746 555.089 366.679 555.238 366.64C555.387 366.602 555.542 366.593 555.695 366.614C555.848 366.636 555.994 366.687 556.127 366.765C556.26 366.843 556.376 366.947 556.469 367.07C556.562 367.193 556.629 367.333 556.668 367.482C556.706 367.631 556.715 367.786 556.694 367.939C556.672 368.092 556.621 368.238 556.543 368.371L549.611 380.04C549.488 380.236 549.311 380.393 549.101 380.49C548.892 380.588 548.658 380.622 548.429 380.589C548.29 380.604 548.149 380.584 548.019 380.532C547.868 380.459 547.735 380.353 547.629 380.223C547.523 380.093 547.447 379.941 547.406 379.778C547.365 379.616 547.361 379.446 547.393 379.281C547.425 379.117 547.494 378.961 547.593 378.826Z" fill="#F2F2F2"/>
<path d="M565.891 376.283C565.848 376.338 565.791 376.38 565.726 376.407L558.929 381.631C558.632 381.836 558.27 381.925 557.911 381.883C557.56 381.83 557.243 381.645 557.024 381.366C556.808 381.078 556.714 380.716 556.764 380.359C556.813 380.002 557.002 379.679 557.289 379.461L563.012 375.071L558.701 369.31C558.484 369.022 558.391 368.66 558.44 368.303C558.49 367.946 558.679 367.623 558.966 367.405C559.256 367.195 559.617 367.105 559.972 367.154C560.327 367.204 560.649 367.389 560.871 367.67L565.985 374.551C566.045 374.589 566.089 374.647 566.109 374.716C566.15 374.781 566.181 374.851 566.203 374.925C566.184 374.988 566.175 375.053 566.176 375.118L566.156 375.263L566.116 375.552C566.101 375.615 566.092 375.68 566.089 375.745L565.891 376.283Z" fill="#F2F2F2"/>
<path d="M963.283 316.108L800.047 293.405L791.64 353.853L954.876 376.556L963.283 316.108Z" fill="#4D4D4D"/>
<path d="M494.965 486.335L360.445 467.626L352.038 528.074L486.558 546.783L494.965 486.335Z" fill="#4D4D4D"/>
<path d="M892.028 537.553L898.8 563.613L888.014 566.414L881.218 540.178L862.546 550.903L872.2 481.485L913.982 537.337L892.028 537.553Z" fill="#263238"/>
<path d="M873.237 474.034C872.965 472.859 872.918 471.644 873.096 470.451C873.236 469.252 873.614 468.092 874.209 467.042C874.488 468.215 874.527 469.433 874.326 470.622C874.182 471.818 873.812 472.976 873.237 474.034Z" fill="#263238"/>
<path d="M866.871 475.607C865.858 474.965 864.973 474.142 864.259 473.179C863.505 472.236 862.953 471.146 862.64 469.98C863.659 470.621 864.545 471.454 865.248 472.432C866.003 473.366 866.556 474.447 866.871 475.607Z" fill="#263238"/>
<path d="M863.561 481.217C861.198 481.74 858.725 481.396 856.593 480.248C858.958 479.758 861.42 480.1 863.561 481.217Z" fill="#263238"/>
<path d="M865.194 487.663C864.575 488.693 863.748 489.582 862.766 490.275C861.823 491.023 860.744 491.583 859.588 491.922C860.208 490.885 861.036 489.988 862.019 489.286C862.969 488.554 864.045 488.004 865.194 487.663Z" fill="#263238"/>
<path d="M880.679 483.598C883.052 483.109 885.522 483.452 887.671 484.57C885.299 485.093 882.818 484.748 880.679 483.598Z" fill="#263238"/>
<path d="M878.902 477.28C879.538 476.263 880.362 475.376 881.33 474.669C882.279 473.915 883.367 473.356 884.533 473.025C883.211 475.026 881.222 476.491 878.919 477.16L878.902 477.28Z" fill="#263238"/>
<path d="M816.414 309.836L824.425 310.95C825.754 311.135 826.942 311.605 827.989 312.361C829.036 313.116 829.816 314.083 830.33 315.261C830.869 316.421 831.045 317.676 830.857 319.028C830.669 320.379 830.156 321.55 829.318 322.54C828.505 323.512 827.492 324.218 826.279 324.659C825.066 325.1 823.794 325.228 822.465 325.043L817.246 324.317L815.896 334.023L813.104 333.635L816.414 309.836ZM822.906 322.36C823.792 322.483 824.597 322.381 825.32 322.052C826.065 321.727 826.673 321.258 827.142 320.645C827.611 320.033 827.897 319.361 827.998 318.63C828.1 317.899 828.009 317.175 827.724 316.457C827.44 315.74 826.984 315.123 826.356 314.607C825.749 314.093 825.003 313.775 824.117 313.652L818.832 312.917L817.621 321.625L822.906 322.36ZM837.023 335.877L832.22 319.014L835.278 319.439L838.844 332.776L838.91 332.785L845.781 320.9L848.839 321.325L835.013 344L832.088 343.593L837.023 335.877ZM855.306 339.775C854.619 339.68 853.992 339.479 853.425 339.175C852.879 338.873 852.433 338.506 852.087 338.074C851.702 337.591 851.438 337.057 851.293 336.473C851.149 335.888 851.132 335.197 851.243 334.399L852.625 324.461L849.667 324.049L850.023 321.49L852.981 321.901L853.647 317.115L856.472 317.508L855.806 322.294L859.928 322.868L859.572 325.427L855.45 324.854L854.165 334.094C854.036 335.025 854.117 335.736 854.41 336.229C854.764 336.775 855.339 337.103 856.137 337.214C856.779 337.303 857.426 337.201 858.077 336.908L857.693 339.667C857.339 339.776 856.98 339.839 856.616 339.856C856.275 339.876 855.838 339.849 855.306 339.775ZM864.473 316.52L867.298 316.913L866.323 323.926L865.866 326.235L865.999 326.253C866.585 325.454 867.416 324.835 868.493 324.398C869.593 323.963 870.741 323.829 871.937 323.996C873.998 324.282 875.487 325.111 876.403 326.48C877.322 327.828 877.643 329.499 877.366 331.493L875.854 342.362L873.029 341.969L874.481 331.532C874.693 330.003 874.463 328.819 873.789 327.98C873.115 327.141 872.157 326.635 870.917 326.463C870.03 326.339 869.173 326.491 868.346 326.918C867.541 327.348 866.858 327.954 866.298 328.734C865.76 329.517 865.427 330.363 865.301 331.272L863.988 340.712L861.163 340.319L864.473 316.52ZM887.661 344.546C885.999 344.315 884.559 343.708 883.341 342.726C882.122 341.743 881.232 340.512 880.669 339.034C880.129 337.558 879.975 335.989 880.206 334.327C880.437 332.666 881.014 331.199 881.936 329.926C882.88 328.657 884.073 327.716 885.513 327.104C886.954 326.491 888.505 326.3 890.167 326.531C891.829 326.762 893.269 327.369 894.488 328.352C895.706 329.334 896.586 330.563 897.126 332.039C897.688 333.518 897.854 335.088 897.622 336.75C897.391 338.412 896.804 339.877 895.859 341.146C894.937 342.418 893.755 343.361 892.315 343.974C890.874 344.586 889.323 344.777 887.661 344.546ZM888.017 341.987C889.059 342.132 890.058 342.011 891.015 341.625C891.998 341.219 892.823 340.566 893.49 339.665C894.18 338.767 894.615 337.664 894.797 336.357C894.979 335.049 894.861 333.87 894.442 332.818C894.046 331.769 893.429 330.926 892.592 330.29C891.779 329.635 890.852 329.235 889.811 329.09C888.769 328.946 887.757 329.076 886.775 329.481C885.796 329.865 884.961 330.505 884.272 331.403C883.604 332.304 883.18 333.408 882.998 334.716C882.816 336.023 882.923 337.201 883.319 338.25C883.738 339.302 884.364 340.157 885.199 340.816C886.036 341.452 886.976 341.842 888.017 341.987ZM901.757 328.685L904.45 329.06L904.103 331.553L904.236 331.571C904.818 330.794 905.659 330.188 906.759 329.753C907.861 329.297 908.989 329.149 910.141 329.309C912.179 329.593 913.647 330.407 914.545 331.751C915.467 333.077 915.786 334.759 915.503 336.797L913.991 347.666L911.166 347.273L912.618 336.836C912.836 335.263 912.618 334.07 911.964 333.256C911.309 332.442 910.328 331.944 909.02 331.762C908.112 331.636 907.257 331.777 906.454 332.184C905.675 332.596 905.027 333.194 904.511 333.981C903.998 334.745 903.678 335.582 903.552 336.49L902.225 346.03L899.4 345.637L901.757 328.685Z" fill="white"/>
<path d="M409.073 517.978C406.768 517.657 404.75 516.823 403.017 515.475C401.285 514.128 400.007 512.436 399.183 510.402C398.384 508.348 398.147 506.158 398.47 503.832C398.794 501.505 399.619 499.474 400.944 497.738C402.295 495.984 403.988 494.694 406.022 493.87C408.057 493.047 410.226 492.795 412.531 493.116C414.303 493.362 415.873 493.931 417.24 494.821C418.632 495.692 419.785 496.824 420.698 498.216L418.398 499.895C417.64 498.682 416.754 497.746 415.739 497.085C414.747 496.428 413.552 496.002 412.156 495.808C410.428 495.567 408.787 495.757 407.232 496.377C405.681 496.974 404.37 497.955 403.299 499.319C402.254 500.665 401.597 502.301 401.329 504.229C401.061 506.157 401.245 507.922 401.88 509.523C402.541 511.106 403.534 512.408 404.861 513.428C406.19 514.426 407.719 515.045 409.447 515.285C412.328 515.686 414.941 514.841 417.288 512.75L419.071 515.031C417.781 516.185 416.274 517.037 414.548 517.587C412.826 518.116 411.001 518.246 409.073 517.978ZM426.027 512.814L421.906 512.241L422.628 509.97L426.716 510.538L428.066 505.949L423.911 505.371L424.601 503.095L428.722 503.668L430.597 497.254L433.056 497.597L431.182 504.01L435.902 504.667L437.776 498.253L440.236 498.595L438.361 505.009L442.483 505.582L441.794 507.858L437.705 507.289L436.355 511.879L440.51 512.457L439.821 514.732L435.666 514.155L433.684 520.858L431.224 520.516L433.207 513.813L428.487 513.156L426.504 519.86L424.045 519.518L426.027 512.814ZM433.896 511.537L435.246 506.947L430.526 506.291L429.176 510.88L433.896 511.537Z" fill="white"/>
<path d="M640.836 335.526L441.408 307.789L459.228 179.666L658.655 207.403L640.836 335.526ZM444.23 305.657L638.703 332.704L655.831 209.555L461.357 182.508L444.23 305.657Z" fill="#EBEBEB"/>
<path d="M657.252 208.481L460.301 181.089L442.826 306.734L639.777 334.126L657.252 208.481Z" fill="#333333"/>
<path d="M657.252 208.481L460.301 181.089L456.996 204.85L653.947 232.242L657.252 208.481Z" fill="#F2F2F2"/>
<path d="M655.003 233.662L455.575 205.925L459.228 179.666L658.655 207.403L655.003 233.662ZM458.4 203.773L652.873 230.82L655.831 209.555L461.357 182.508L458.4 203.773Z" fill="#EBEBEB"/>
<path d="M480.921 196.239C480.758 197.415 480.249 198.516 479.46 199.403C478.671 200.289 477.636 200.922 476.487 201.221C475.338 201.52 474.126 201.472 473.005 201.082C471.884 200.692 470.903 199.978 470.187 199.031C469.471 198.084 469.052 196.946 468.983 195.761C468.914 194.576 469.198 193.397 469.8 192.373C470.401 191.349 471.292 190.526 472.36 190.009C473.429 189.492 474.627 189.303 475.803 189.467C477.38 189.686 478.805 190.523 479.765 191.793C480.725 193.063 481.141 194.662 480.921 196.239Z" fill="#A6A6A6"/>
<path d="M505.337 199.634C505.173 200.81 504.664 201.911 503.875 202.798C503.086 203.685 502.051 204.318 500.902 204.617C499.754 204.916 498.542 204.867 497.42 204.477C496.299 204.088 495.318 203.374 494.602 202.427C493.887 201.48 493.468 200.342 493.399 199.156C493.33 197.971 493.614 196.792 494.215 195.768C494.816 194.745 495.707 193.922 496.776 193.405C497.844 192.887 499.042 192.699 500.218 192.862C501.795 193.082 503.22 193.918 504.18 195.188C505.14 196.458 505.556 198.058 505.337 199.634Z" fill="#EBEBEB"/>
<path d="M529.851 203.044C529.687 204.22 529.179 205.321 528.389 206.207C527.6 207.094 526.566 207.727 525.417 208.026C524.268 208.325 523.056 208.277 521.934 207.887C520.813 207.497 519.832 206.783 519.117 205.836C518.401 204.889 517.982 203.751 517.913 202.566C517.844 201.381 518.128 200.202 518.729 199.178C519.33 198.154 520.221 197.331 521.29 196.814C522.358 196.297 523.556 196.108 524.732 196.271C526.309 196.491 527.734 197.328 528.694 198.598C529.654 199.868 530.07 201.467 529.851 203.044Z" fill="white"/>
<path d="M475.202 273.823C473.044 273.523 471.24 272.673 469.792 271.275C468.347 269.848 467.447 268.011 467.092 265.761L470.558 264.865C471.093 268.225 472.795 270.105 475.664 270.504C477.275 270.728 478.637 270.347 479.749 269.359C480.889 268.376 481.585 266.969 481.84 265.139L484.701 244.568L488.184 245.052L485.363 265.337C485.078 267.385 484.451 269.094 483.481 270.463C482.542 271.809 481.35 272.771 479.905 273.349C478.491 273.905 476.923 274.062 475.202 273.823ZM510.986 248.223L514.92 248.77L521.985 279.661L518.174 279.131L516.346 270.648L503.684 268.887L499.611 276.55L495.8 276.02L510.986 248.223ZM515.614 267.205L513.191 256.091L512.442 252.77L512.278 252.747L510.692 255.743L505.328 265.774L515.614 267.205ZM535.136 251.582L538.988 252.118L543.283 274.395L543.862 277.441L544.026 277.464L545.455 274.697L555.994 254.483L559.846 255.019L545.029 282.866L541.422 282.365L535.136 251.582ZM580.377 257.874L584.311 258.421L591.377 289.312L587.566 288.782L585.738 280.299L573.076 278.538L569.002 286.201L565.191 285.671L580.377 257.874ZM585.006 276.856L582.583 265.742L581.833 262.421L581.67 262.398L580.083 265.394L574.72 275.425L585.006 276.856Z" fill="#CCCCCC"/>
<path d="M674.136 767.549C644.285 845.93 592.391 943.194 560.46 959.841C534.702 973.267 407.576 985.522 400.624 985.317C383.387 984.665 366.438 860.007 384.814 857.598C407.876 854.538 513.748 865.92 520.607 860.607C527.466 855.293 573.312 808.409 625.135 754.245C660.866 716.817 692.647 718.927 674.136 767.549Z" fill="#DD6A57"/>
<path d="M415.136 980.626C412.97 981.357 382.244 991.806 363.756 994.495C349.985 996.487 310.132 1001.17 306.434 986.227C303.894 976.043 326.981 970.504 343.232 966.226C351.8 964.002 362.963 956.903 361.297 951.387C358.393 941.692 336.293 947.909 321.487 953.985C292.822 965.704 253.693 988.502 239.385 972.798C233.989 966.886 242.366 958.613 254.019 950.992C235.672 959.206 216.495 965.436 210.233 959.035C206.656 955.416 207.043 951.218 209.956 946.707C204.513 947.671 199.955 946.693 197.218 942.871C192.542 936.371 196.372 928.277 203.583 920.432C202.57 920.174 201.633 919.68 200.849 918.99C200.065 918.3 199.456 917.433 199.072 916.462C189.911 897.147 255.062 854.422 275.832 852.469C336.885 846.631 399.03 860.51 399.03 860.51C419.671 882.281 415.191 980.585 415.136 980.626Z" fill="#DD6A57"/>
<path d="M335.783 914.117C321.408 914.351 307.248 917.652 294.251 923.8C277.876 931.624 266.332 941.816 252.15 951.715C252.095 951.775 252.061 951.851 252.054 951.932C252.047 952.012 252.067 952.093 252.111 952.161C252.155 952.23 252.221 952.281 252.297 952.308C252.374 952.335 252.457 952.335 252.534 952.309C259.285 947.595 287.018 930.217 294.089 926.383C306.881 919.26 321.129 915.148 335.75 914.358C335.97 914.364 335.955 914.116 335.783 914.117Z" fill="#263238"/>
<path d="M328.274 887.511C312.156 889.595 295.742 891.687 280.252 897.029C263.342 902.862 249.173 914.262 235.291 925.186C226.94 931.742 218.743 938.491 210.698 945.434C210.365 945.707 210.726 946.298 211.086 946.004C225.21 934.696 239.676 923.813 254.485 913.354C268.154 903.576 283.616 896.59 299.988 892.794C309.354 890.656 318.844 889.223 328.334 887.79C328.461 887.759 328.45 887.487 328.274 887.511Z" fill="#263238"/>
<path d="M314.738 863.263C299.211 864.274 285.677 865.095 271.172 871.311C252.009 879.559 232.405 895.217 225.534 900.799C217.92 906.942 210.525 913.459 203.226 919.817C202.921 920.069 203.387 920.601 203.696 920.325C220.294 906.15 237.787 893.059 256.067 881.131C264.695 875.33 274.166 870.894 284.145 867.979C294.186 865.559 304.417 864.013 314.724 863.359C314.724 863.359 314.786 863.27 314.738 863.263Z" fill="#263238"/>
<path d="M523.14 848.916L637.136 859.855C637.136 859.855 665.544 806.514 680.054 757.68C694.563 708.846 649.566 720.825 600.023 768.67C550.48 816.515 523.14 848.916 523.14 848.916Z" fill="#3705A0"/>
<path d="M564.967 820.152C565.769 820.042 566.551 820.077 567.442 820.029C568.134 819.975 568.83 820.076 569.477 820.326C570.125 820.575 570.709 820.967 571.185 821.472C571.662 821.977 572.02 822.582 572.232 823.243C572.444 823.904 572.506 824.604 572.412 825.292C572.313 825.907 572.374 826.539 572.589 827.124C572.805 827.709 573.168 828.229 573.643 828.633C574.164 829.083 574.787 829.398 575.458 829.549C576.209 829.801 576.967 830.005 577.805 830.343C577.003 830.453 576.218 830.442 575.327 830.49C574.436 830.543 573.549 830.325 572.784 829.866C571.981 829.374 571.337 828.659 570.932 827.809C570.527 826.958 570.377 826.009 570.501 825.075C570.58 824.462 570.498 823.839 570.263 823.268C570.027 822.696 569.647 822.196 569.16 821.816C568.621 821.389 567.987 821.098 567.311 820.969C566.463 820.704 565.705 820.5 564.967 820.152ZM654.282 762.378C654.963 762.525 655.603 762.824 656.151 763.253C656.635 763.636 657.013 764.136 657.247 764.707C657.482 765.278 657.567 765.899 657.492 766.512C657.369 767.445 657.519 768.395 657.924 769.245C658.329 770.096 658.972 770.81 659.775 771.302C660.544 771.756 661.432 771.965 662.322 771.902C663.114 771.865 663.899 771.876 664.797 771.78C664.055 771.455 663.297 771.251 662.449 770.986C661.777 770.838 661.153 770.523 660.635 770.07C660.165 769.662 659.806 769.141 659.591 768.557C659.376 767.973 659.311 767.344 659.404 766.728C659.502 765.787 659.324 764.837 658.891 763.996C658.458 763.154 657.789 762.457 656.966 761.99C656.178 761.584 655.294 761.402 654.41 761.462C653.618 761.5 652.833 761.489 652.055 761.602C652.797 761.926 653.555 762.13 654.282 762.378ZM651.029 806.978C650.446 807.357 649.781 807.593 649.09 807.666C648.482 807.744 647.864 807.661 647.297 807.427C646.731 807.193 646.235 806.816 645.859 806.332C645.289 805.578 644.512 805.006 643.622 804.686C642.733 804.366 641.77 804.311 640.85 804.53C639.987 804.766 639.212 805.247 638.617 805.915C638.092 806.506 637.526 807.041 637.043 807.687C637.796 807.398 638.466 807 639.177 806.657C639.765 806.3 640.426 806.081 641.11 806.016C641.732 805.972 642.355 806.088 642.921 806.351C643.486 806.615 643.975 807.018 644.341 807.522C644.763 808.091 645.307 808.556 645.935 808.883C646.562 809.21 647.255 809.391 647.962 809.411C648.67 809.431 649.372 809.291 650.017 809C650.662 808.709 651.232 808.276 651.686 807.733C652.21 807.142 652.78 806.582 653.263 805.937C652.434 806.239 651.764 806.637 651.053 806.981L651.029 806.978ZM627.384 751.141C626.795 751.515 626.132 751.758 625.441 751.854C624.828 751.92 624.209 751.83 623.64 751.592C623.072 751.353 622.572 750.975 622.189 750.492L621.66 749.878C621.139 750.272 620.641 750.67 620.14 751.092C620.351 751.264 620.538 751.464 620.696 751.686C621.291 752.424 622.089 752.973 622.992 753.264C623.894 753.556 624.862 753.577 625.777 753.326C626.622 753.06 627.373 752.559 627.944 751.883C628.469 751.292 629.035 750.756 629.518 750.111C628.913 750.395 628.119 750.801 627.408 751.144L627.384 751.141ZM608.675 791.821C608.533 792.5 608.243 793.14 607.824 793.694C607.439 794.174 606.937 794.549 606.368 794.783C605.798 795.018 605.178 795.104 604.566 795.035C603.628 794.906 602.674 795.053 601.819 795.458C600.964 795.862 600.245 796.508 599.751 797.314C599.312 798.08 599.105 798.956 599.154 799.837C599.216 800.632 599.181 801.413 599.277 802.312C599.601 801.57 599.805 800.812 600.095 799.967C600.253 799.303 600.558 798.682 600.986 798.15C601.396 797.683 601.917 797.328 602.5 797.117C603.084 796.906 603.712 796.846 604.325 796.943C605.27 797.046 606.224 796.871 607.071 796.438C607.917 796.006 608.618 795.335 609.088 794.508C609.483 793.717 609.665 792.835 609.615 791.952C609.554 791.157 609.565 790.372 609.468 789.474C609.131 790.311 608.951 791.073 608.675 791.821ZM635.123 839.519C634.992 840.202 634.701 840.844 634.273 841.392C633.89 841.875 633.389 842.253 632.819 842.488C632.248 842.722 631.627 842.807 631.014 842.733C630.083 842.607 629.136 842.754 628.287 843.154C627.437 843.555 626.722 844.193 626.227 844.991C625.769 845.758 625.551 846.643 625.603 847.534C625.664 848.33 625.653 849.115 625.75 850.013C626.074 849.271 626.278 848.513 626.543 847.665C626.699 846.996 627.013 846.374 627.459 845.851C627.865 845.381 628.386 845.023 628.97 844.811C629.555 844.6 630.184 844.542 630.797 844.644C631.739 844.742 632.688 844.564 633.53 844.131C634.371 843.698 635.068 843.029 635.536 842.206C635.941 841.418 636.124 840.534 636.063 839.65C636.026 838.858 636.037 838.073 635.941 837.175C635.603 838.013 635.399 838.771 635.123 839.519Z" fill="white"/>
<path d="M644.489 835.808C620.055 831.77 595.31 829.435 570.571 827.592C563.562 827.092 556.548 826.739 549.531 826.533C549.338 826.507 549.271 826.817 549.488 826.847C561.737 828.55 574.042 829.844 586.341 831.186C598.64 832.528 611.056 833.738 623.43 834.722C630.427 835.302 637.404 835.855 644.402 836.262C644.718 836.282 644.803 835.851 644.489 835.808Z" fill="#263238"/>
<path d="M529.742 1034.56L819.083 1074.8C823.078 1069.41 810.887 809.278 723.213 724.308C703.712 705.473 663.935 710.312 651.111 724.234C586.722 794.175 529.742 1034.56 529.742 1034.56Z" fill="#3705A0"/>
<path d="M682.418 836.486C683.22 836.377 684.002 836.412 684.893 836.364C685.585 836.309 686.281 836.411 686.929 836.661C687.576 836.91 688.16 837.302 688.637 837.807C689.113 838.311 689.471 838.916 689.683 839.577C689.896 840.238 689.957 840.939 689.863 841.626C689.764 842.242 689.825 842.873 690.041 843.459C690.256 844.044 690.619 844.564 691.095 844.968C691.618 845.414 692.24 845.728 692.909 845.884C693.66 846.136 694.418 846.34 695.256 846.678C694.454 846.787 693.67 846.776 692.778 846.824C691.887 846.876 691.001 846.659 690.235 846.2C689.432 845.708 688.789 844.994 688.383 844.143C687.978 843.293 687.828 842.344 687.952 841.41C688.031 840.797 687.949 840.174 687.714 839.602C687.479 839.031 687.098 838.531 686.611 838.151C686.074 837.721 685.439 837.43 684.762 837.304C683.915 837.039 683.253 836.848 682.418 836.486ZM706.102 995.778C706.776 995.922 707.408 996.22 707.947 996.649C708.434 997.024 708.813 997.52 709.049 998.088C709.285 998.655 709.369 999.274 709.292 999.883C709.163 1000.82 709.31 1001.78 709.715 1002.63C710.12 1003.49 710.765 1004.2 711.571 1004.7C712.345 1005.14 713.229 1005.35 714.118 1005.3C714.91 1005.26 715.695 1005.27 716.593 1005.18C715.851 1004.85 715.093 1004.65 714.249 1004.36C713.577 1004.22 712.951 1003.91 712.431 1003.47C711.961 1003.06 711.602 1002.54 711.387 1001.95C711.172 1001.37 711.107 1000.74 711.2 1000.12C711.318 999.181 711.148 998.224 710.713 997.378C710.278 996.533 709.598 995.838 708.762 995.386C707.987 994.969 707.107 994.786 706.23 994.861C705.438 994.899 704.653 994.888 703.755 994.984C704.589 995.346 705.42 995.56 706.099 995.802L706.102 995.778ZM779.219 858.847C779.894 858.976 780.528 859.266 781.067 859.694C781.555 860.073 781.935 860.574 782.17 861.145C782.405 861.717 782.487 862.339 782.408 862.952C782.284 863.886 782.434 864.836 782.839 865.686C783.245 866.537 783.888 867.251 784.691 867.743C785.456 868.203 786.343 868.42 787.234 868.367C788.029 868.306 788.814 868.317 789.712 868.22C788.971 867.896 788.213 867.692 787.365 867.427C786.694 867.275 786.071 866.961 785.551 866.511C785.075 866.107 784.712 865.587 784.497 865.001C784.281 864.416 784.22 863.785 784.319 863.169C784.413 862.481 784.352 861.781 784.139 861.12C783.927 860.459 783.569 859.854 783.093 859.349C782.616 858.845 782.032 858.453 781.385 858.203C780.737 857.954 780.041 857.852 779.349 857.906C778.554 857.968 777.773 857.933 776.874 858.029C777.757 858.398 778.539 858.605 779.263 858.878L779.219 858.847ZM654.285 762.379C654.966 762.525 655.605 762.824 656.154 763.253C656.638 763.636 657.016 764.137 657.25 764.707C657.485 765.278 657.57 765.899 657.495 766.512C657.372 767.446 657.522 768.395 657.927 769.245C658.332 770.096 658.975 770.81 659.778 771.302C660.547 771.756 661.435 771.965 662.325 771.902C663.116 771.865 663.901 771.876 664.8 771.78C664.058 771.455 663.3 771.252 662.452 770.986C661.78 770.838 661.156 770.523 660.638 770.07C660.168 769.662 659.809 769.141 659.594 768.557C659.379 767.973 659.314 767.344 659.407 766.728C659.505 765.787 659.327 764.838 658.894 763.996C658.461 763.154 657.792 762.457 656.969 761.99C656.181 761.585 655.297 761.402 654.413 761.462C653.621 761.5 652.836 761.489 652.058 761.602C652.8 761.926 653.558 762.13 654.285 762.379ZM738.074 772.262C738.753 772.404 739.392 772.694 739.946 773.113C740.427 773.498 740.801 774 741.036 774.569C741.27 775.139 741.357 775.759 741.287 776.371C741.158 777.309 741.305 778.263 741.71 779.118C742.115 779.973 742.76 780.692 743.567 781.186C744.34 781.627 745.224 781.835 746.113 781.786C746.884 781.721 747.669 781.732 748.468 781.647C747.726 781.322 746.968 781.118 746.244 780.846C745.571 780.689 744.941 780.383 744.402 779.951C743.936 779.541 743.58 779.02 743.369 778.437C743.158 777.853 743.098 777.225 743.195 776.612C743.299 775.667 743.123 774.713 742.691 773.867C742.258 773.02 741.587 772.319 740.761 771.849C739.973 771.444 739.089 771.262 738.204 771.322C737.409 771.383 736.624 771.372 735.726 771.469C736.543 771.779 737.35 771.989 738.098 772.266L738.074 772.262ZM615.252 892.818C615.932 892.959 616.571 893.25 617.125 893.668C617.602 894.055 617.973 894.556 618.203 895.126C618.434 895.695 618.516 896.314 618.442 896.923C618.313 897.861 618.46 898.815 618.865 899.67C619.269 900.525 619.915 901.244 620.721 901.738C621.495 902.179 622.379 902.387 623.268 902.338C624.059 902.301 624.844 902.312 625.743 902.215C625.001 901.891 624.243 901.687 623.399 901.398C622.73 901.25 622.107 900.944 621.581 900.506C621.111 900.097 620.752 899.577 620.537 898.993C620.322 898.409 620.257 897.78 620.35 897.164C620.471 896.22 620.303 895.262 619.868 894.416C619.432 893.57 618.75 892.876 617.912 892.426C617.137 892.007 616.257 891.825 615.38 891.901C614.588 891.939 613.803 891.928 612.905 892.024C613.78 892.269 614.538 892.473 615.29 892.725L615.252 892.818ZM686.896 1045.34C687.577 1045.47 688.217 1045.76 688.769 1046.19C689.249 1046.57 689.624 1047.07 689.858 1047.64C690.093 1048.21 690.179 1048.83 690.11 1049.44C689.998 1050.36 690.15 1051.29 690.547 1052.13C690.945 1052.96 691.572 1053.66 692.355 1054.16C693.128 1054.6 694.012 1054.81 694.901 1054.76C695.696 1054.69 696.481 1054.71 697.379 1054.61C696.638 1054.28 695.876 1054.1 695.032 1053.82C694.36 1053.67 693.736 1053.35 693.218 1052.9C692.746 1052.5 692.384 1051.98 692.168 1051.4C691.952 1050.82 691.888 1050.19 691.983 1049.58C692.077 1048.89 692.015 1048.19 691.802 1047.52C691.589 1046.86 691.23 1046.25 690.752 1045.74C690.273 1045.24 689.687 1044.84 689.036 1044.59C688.386 1044.34 687.687 1044.24 686.992 1044.29C686.197 1044.35 685.436 1044.35 684.514 1044.44C685.458 1044.72 686.265 1044.93 686.94 1045.19L686.896 1045.34ZM652.494 963.99C653.177 964.12 653.819 964.412 654.367 964.84C654.851 965.22 655.228 965.721 655.459 966.292C655.69 966.863 655.767 967.485 655.684 968.095C655.56 969.029 655.71 969.979 656.115 970.829C656.52 971.679 657.164 972.394 657.967 972.886C658.733 973.344 659.619 973.562 660.51 973.51C661.305 973.449 662.09 973.46 662.988 973.363C662.247 973.039 661.489 972.835 660.641 972.57C659.972 972.413 659.35 972.099 658.827 971.654C658.332 971.244 657.957 970.708 657.743 970.103C657.529 969.497 657.482 968.845 657.609 968.216C657.699 967.526 657.634 966.825 657.419 966.164C657.204 965.503 656.844 964.898 656.366 964.393C655.887 963.889 655.302 963.497 654.653 963.248C654.004 962.998 653.308 962.896 652.615 962.949C651.823 962.987 651.038 962.976 650.14 963.072C651.032 963.368 651.791 963.572 652.539 963.848L652.494 963.99ZM539.071 1026.69C538.402 1026.54 537.78 1026.22 537.257 1025.78C536.78 1025.37 536.418 1024.85 536.206 1024.27C535.995 1023.68 535.94 1023.05 536.05 1022.44C536.138 1021.55 535.983 1020.66 535.601 1019.86C535.219 1019.06 534.624 1018.37 533.881 1017.88C533.794 1018.51 533.569 1019.07 533.44 1019.64C533.719 1020 533.923 1020.41 534.04 1020.85C534.156 1021.29 534.183 1021.74 534.117 1022.19C533.994 1023.13 534.143 1024.08 534.549 1024.93C534.954 1025.78 535.597 1026.49 536.4 1026.98C537.166 1027.44 538.052 1027.66 538.943 1027.61C539.738 1027.55 540.523 1027.56 541.422 1027.46C540.625 1027.01 539.867 1026.8 539.115 1026.55L539.071 1026.69ZM567.604 966.094C568.287 966.225 568.929 966.517 569.476 966.945C569.96 967.327 570.338 967.828 570.572 968.399C570.807 968.969 570.892 969.591 570.817 970.203C570.694 971.137 570.844 972.087 571.249 972.937C571.654 973.787 572.297 974.502 573.1 974.994C573.866 975.454 574.752 975.671 575.644 975.618C576.439 975.557 577.199 975.564 578.001 975.454C577.26 975.13 576.526 974.93 575.774 974.678C575.102 974.53 574.478 974.215 573.96 973.762C573.481 973.361 573.115 972.841 572.899 972.255C572.683 971.669 572.624 971.036 572.729 970.42C572.827 969.479 572.649 968.529 572.216 967.688C571.783 966.846 571.114 966.149 570.291 965.681C569.503 965.276 568.619 965.094 567.735 965.154C566.94 965.215 566.158 965.18 565.26 965.277C566.142 965.473 567.02 965.694 567.648 965.953L567.604 966.094ZM699.43 906.442C700.11 906.592 700.748 906.89 701.299 907.317C701.783 907.7 702.16 908.2 702.395 908.771C702.63 909.341 702.714 909.963 702.64 910.575C702.516 911.509 702.666 912.459 703.071 913.309C703.477 914.159 704.12 914.874 704.923 915.366C705.684 915.816 706.564 916.024 707.445 915.963C708.237 915.925 709.022 915.936 709.92 915.84C709.179 915.516 708.421 915.312 707.573 915.047C706.904 914.89 706.282 914.576 705.759 914.131C705.292 913.721 704.936 913.2 704.725 912.617C704.514 912.033 704.455 911.405 704.552 910.792C704.65 909.851 704.471 908.901 704.039 908.06C703.606 907.218 702.937 906.521 702.114 906.054C701.326 905.648 700.442 905.466 699.557 905.526C698.766 905.563 697.981 905.552 697.082 905.649C697.964 905.845 698.723 906.049 699.474 906.301L699.43 906.442ZM791.216 1024.06C791.887 1024.2 792.519 1024.49 793.064 1024.91C793.548 1025.29 793.925 1025.79 794.16 1026.36C794.395 1026.93 794.479 1027.55 794.405 1028.16C794.276 1029.1 794.423 1030.06 794.828 1030.91C795.233 1031.77 795.878 1032.48 796.685 1032.98C797.458 1033.42 798.342 1033.63 799.231 1033.58C800.026 1033.52 800.811 1033.53 801.709 1033.43C800.968 1033.11 800.206 1032.93 799.362 1032.64C798.691 1032.49 798.068 1032.17 797.548 1031.72C797.076 1031.32 796.714 1030.81 796.498 1030.22C796.282 1029.64 796.218 1029.02 796.313 1028.4C796.411 1027.72 796.352 1027.01 796.142 1026.35C795.932 1025.69 795.575 1025.08 795.098 1024.57C794.621 1024.06 794.037 1023.67 793.387 1023.42C792.738 1023.17 792.041 1023.06 791.346 1023.12C790.551 1023.18 789.766 1023.17 788.868 1023.26C789.798 1023.47 790.57 1023.58 791.308 1023.92L791.216 1024.06ZM757.787 955.506C758.468 955.644 759.108 955.935 759.66 956.356C760.14 956.742 760.515 957.243 760.749 957.813C760.984 958.383 761.07 959.003 761.001 959.615C760.872 960.552 761.019 961.507 761.424 962.362C761.829 963.217 762.474 963.935 763.281 964.43C764.054 964.871 764.938 965.079 765.827 965.03C766.622 964.968 767.404 965.003 768.302 964.907C767.56 964.583 766.802 964.379 765.958 964.089C765.287 963.949 764.662 963.642 764.14 963.197C763.67 962.789 763.311 962.269 763.096 961.684C762.881 961.1 762.817 960.471 762.909 959.856C763.007 958.914 762.829 957.965 762.396 957.123C761.963 956.282 761.294 955.585 760.471 955.117C759.686 954.704 758.804 954.513 757.918 954.565C757.123 954.627 756.362 954.619 755.56 954.729C756.394 954.919 757.142 955.023 757.893 955.275L757.787 955.506ZM650.95 807.212C650.367 807.592 649.702 807.828 649.011 807.901C648.403 807.978 647.785 807.896 647.219 807.662C646.652 807.428 646.156 807.051 645.78 806.567C645.21 805.812 644.433 805.24 643.544 804.92C642.654 804.6 641.691 804.546 640.771 804.764C639.908 805 639.133 805.482 638.538 806.15C638.014 806.74 637.448 807.276 636.965 807.922C637.717 807.633 638.387 807.235 639.099 806.891C639.686 806.534 640.347 806.315 641.031 806.25C641.653 806.207 642.276 806.322 642.842 806.586C643.407 806.849 643.896 807.252 644.263 807.757C644.684 808.325 645.229 808.79 645.856 809.117C646.483 809.445 647.176 809.625 647.884 809.645C648.591 809.666 649.293 809.525 649.938 809.234C650.583 808.944 651.154 808.51 651.607 807.967C652.131 807.376 652.701 806.817 653.184 806.171C652.437 806.239 651.767 806.638 651.056 806.981L650.95 807.212ZM763.253 914.09C762.676 914.472 762.02 914.717 761.334 914.806C760.721 914.872 760.102 914.782 759.533 914.544C758.965 914.306 758.466 913.927 758.083 913.444C757.511 912.699 756.736 912.134 755.851 911.82C754.966 911.505 754.008 911.452 753.094 911.669C752.235 911.897 751.46 912.37 750.865 913.031C750.34 913.621 749.774 914.157 749.291 914.802C750.044 914.514 750.714 914.116 751.425 913.772C752.011 913.411 752.673 913.191 753.358 913.131C753.976 913.087 754.596 913.202 755.158 913.465C755.719 913.728 756.204 914.131 756.565 914.634C756.989 915.199 757.535 915.66 758.162 915.985C758.789 916.309 759.481 916.488 760.187 916.508C760.892 916.528 761.593 916.389 762.238 916.101C762.882 915.813 763.454 915.384 763.909 914.845C764.434 914.254 765 913.718 765.483 913.073C764.665 913.303 763.995 913.701 763.253 914.09ZM708.68 736.198C708.103 736.579 707.447 736.824 706.762 736.914C706.148 736.992 705.524 736.907 704.954 736.668C704.383 736.429 703.885 736.045 703.51 735.553C702.937 734.802 702.158 734.234 701.268 733.919C700.378 733.603 699.416 733.553 698.498 733.774C697.638 734.002 696.864 734.475 696.269 735.135C695.741 735.75 695.175 736.286 694.691 736.931C695.444 736.643 696.138 736.248 696.85 735.904C697.426 735.543 698.08 735.322 698.758 735.26C699.378 735.216 700 735.328 700.565 735.587C701.131 735.846 701.622 736.244 701.993 736.743C702.409 737.316 702.952 737.786 703.578 738.118C704.204 738.45 704.898 738.634 705.606 738.657C706.314 738.679 707.018 738.54 707.664 738.249C708.31 737.958 708.881 737.523 709.334 736.977C709.862 736.362 710.428 735.827 710.911 735.181C710.089 735.435 709.398 735.806 708.687 736.15L708.68 736.198ZM700.235 785.433C700.086 786.106 699.789 786.736 699.364 787.278C698.984 787.766 698.484 788.146 697.912 788.381C697.341 788.616 696.718 788.698 696.105 788.619C695.171 788.496 694.222 788.645 693.371 789.051C692.521 789.456 691.806 790.099 691.314 790.902C690.866 791.672 690.649 792.555 690.69 793.445C690.752 794.24 690.741 795.025 690.837 795.924C691.161 795.182 691.365 794.424 691.631 793.576C691.782 792.905 692.097 792.282 692.547 791.762C692.955 791.292 693.475 790.933 694.06 790.718C694.644 790.503 695.273 790.438 695.888 790.531C696.576 790.624 697.276 790.563 697.937 790.351C698.598 790.138 699.203 789.781 699.708 789.304C700.213 788.827 700.604 788.244 700.854 787.596C701.104 786.948 701.205 786.253 701.151 785.561C701.114 784.769 701.125 783.984 701.028 783.086C700.739 783.93 700.535 784.688 700.235 785.433ZM663.009 918.434C662.862 919.115 662.563 919.754 662.134 920.303C661.751 920.787 661.251 921.164 660.68 921.399C660.109 921.634 659.488 921.718 658.875 921.644C657.942 921.52 656.992 921.67 656.142 922.076C655.291 922.481 654.577 923.124 654.085 923.927C653.644 924.701 653.435 925.585 653.485 926.474C653.522 927.265 653.511 928.05 653.607 928.949C653.932 928.207 654.136 927.449 654.425 926.604C654.555 925.93 654.863 925.302 655.317 924.787C655.725 924.317 656.246 923.958 656.83 923.743C657.414 923.528 658.043 923.463 658.659 923.556C659.6 923.654 660.55 923.476 661.391 923.043C662.233 922.61 662.93 921.941 663.397 921.118C663.816 920.335 663.999 919.447 663.925 918.561C663.884 917.794 663.895 917.009 663.785 916.207C663.509 916.955 663.305 917.713 663.057 918.441L663.009 918.434ZM775.646 813.667L775.261 813.613C774.323 813.484 773.369 813.631 772.514 814.036C771.659 814.441 770.94 815.086 770.446 815.893C770.005 816.666 769.797 817.55 769.846 818.439C769.883 819.231 769.872 820.016 769.969 820.914C770.293 820.173 770.497 819.415 770.786 818.57C770.93 817.9 771.236 817.276 771.678 816.752C772.086 816.283 772.607 815.924 773.191 815.708C773.775 815.493 774.404 815.429 775.02 815.521C775.447 815.581 775.881 815.567 776.304 815.479L775.646 813.667ZM744.508 1032.6C744.377 1033.29 744.086 1033.93 743.658 1034.48C743.275 1034.96 742.774 1035.34 742.204 1035.57C741.633 1035.81 741.012 1035.89 740.399 1035.82C739.465 1035.69 738.516 1035.84 737.665 1036.25C736.815 1036.65 736.101 1037.3 735.609 1038.1C735.16 1038.87 734.943 1039.75 734.984 1040.64C735.046 1041.44 735.035 1042.22 735.131 1043.12C735.452 1042.4 735.656 1041.65 735.925 1040.77C736.073 1040.1 736.388 1039.48 736.841 1038.96C737.242 1038.48 737.761 1038.12 738.348 1037.9C738.934 1037.68 739.567 1037.62 740.183 1037.73C741.124 1037.83 742.073 1037.65 742.915 1037.22C743.756 1036.78 744.454 1036.11 744.921 1035.29C745.326 1034.5 745.509 1033.62 745.449 1032.73C745.411 1031.94 745.422 1031.16 745.326 1030.26C745.036 1031.1 744.819 1031.96 744.508 1032.6ZM803.011 915.392C803.011 915.457 803.002 915.522 802.984 915.585C802.604 916.072 802.104 916.452 801.533 916.688C800.961 916.923 800.338 917.005 799.725 916.926C798.791 916.802 797.842 916.952 796.991 917.357C796.141 917.762 795.427 918.406 794.935 919.209C794.476 919.975 794.259 920.861 794.31 921.752C794.372 922.547 794.361 923.332 794.457 924.23C794.782 923.489 794.985 922.731 795.251 921.883C795.407 921.214 795.721 920.592 796.167 920.068C796.571 919.593 797.091 919.23 797.676 919.015C798.262 918.799 798.893 918.738 799.509 918.837C800.233 918.919 800.967 918.836 801.656 918.596C802.344 918.355 802.97 917.964 803.487 917.449L803.011 915.392ZM587.633 912.915C587.496 913.588 587.206 914.221 586.786 914.764C586.403 915.248 585.902 915.625 585.332 915.86C584.761 916.095 584.14 916.179 583.527 916.105C582.59 915.976 581.636 916.123 580.78 916.528C579.925 916.933 579.207 917.578 578.712 918.385C578.272 919.158 578.063 920.042 578.113 920.931C578.174 921.726 578.139 922.508 578.235 923.406C578.56 922.665 578.763 921.906 579.053 921.062C579.208 920.396 579.513 919.774 579.945 919.244C580.353 918.774 580.874 918.415 581.458 918.2C582.042 917.985 582.671 917.921 583.287 918.013C584.231 918.116 585.186 917.941 586.032 917.508C586.878 917.076 587.58 916.405 588.049 915.579C588.443 914.795 588.624 913.922 588.573 913.046C588.512 912.251 588.523 911.466 588.427 910.568C588.089 911.406 587.909 912.167 587.633 912.915ZM609.619 792.124L607.829 795.98C608.352 795.588 608.783 795.086 609.091 794.508C609.466 793.771 609.648 792.951 609.619 792.124ZM664.043 718.905C663.897 719.586 663.598 720.226 663.168 720.774C662.785 721.258 662.285 721.636 661.714 721.87C661.143 722.105 660.522 722.189 659.91 722.115C658.976 721.992 658.026 722.141 657.176 722.547C656.325 722.952 655.611 723.595 655.119 724.398C654.67 725.168 654.453 726.051 654.495 726.941C654.556 727.736 654.545 728.521 654.642 729.42C654.966 728.678 655.17 727.92 655.435 727.072C655.583 726.4 655.898 725.776 656.351 725.258C656.759 724.788 657.28 724.429 657.864 724.214C658.448 723.999 659.077 723.934 659.693 724.027C660.634 724.125 661.584 723.947 662.425 723.514C663.267 723.081 663.964 722.412 664.431 721.589C664.837 720.801 665.019 719.917 664.959 719.033C664.918 718.265 664.929 717.48 664.819 716.678C664.519 717.423 664.315 718.181 664.067 718.908L664.043 718.905ZM635.102 839.516C634.971 840.198 634.68 840.84 634.252 841.388C633.869 841.872 633.368 842.25 632.797 842.484C632.227 842.719 631.605 842.803 630.993 842.729C630.062 842.604 629.115 842.75 628.265 843.151C627.416 843.552 626.701 844.19 626.205 844.988C625.747 845.754 625.53 846.64 625.581 847.531C625.643 848.326 625.632 849.111 625.728 850.009C626.053 849.268 626.256 848.51 626.522 847.662C626.678 846.993 626.992 846.371 627.438 845.848C627.844 845.377 628.365 845.019 628.949 844.808C629.534 844.597 630.163 844.539 630.776 844.641C631.717 844.739 632.667 844.561 633.509 844.128C634.35 843.695 635.047 843.026 635.515 842.203C635.92 841.415 636.102 840.531 636.042 839.646C636.005 838.855 636.016 838.07 635.92 837.172C635.606 838.013 635.402 838.771 635.126 839.519L635.102 839.516ZM739.799 870.839C739.662 871.512 739.372 872.145 738.952 872.688C738.569 873.172 738.068 873.549 737.497 873.784C736.927 874.019 736.305 874.103 735.693 874.029C734.756 873.9 733.801 874.047 732.946 874.452C732.091 874.856 731.372 875.502 730.878 876.308C730.437 877.082 730.229 877.966 730.278 878.855C730.34 879.65 730.305 880.431 730.401 881.33C730.725 880.588 730.929 879.83 731.218 878.986C731.377 878.321 731.682 877.7 732.11 877.168C732.519 876.698 733.039 876.339 733.623 876.124C734.207 875.909 734.836 875.844 735.452 875.937C736.397 876.04 737.351 875.865 738.198 875.432C739.044 875 739.745 874.329 740.215 873.502C740.609 872.719 740.79 871.846 740.739 870.97C740.678 870.175 740.688 869.39 740.592 868.492C740.182 869.32 740.075 870.091 739.823 870.843L739.799 870.839ZM621.846 994.382C621.701 995.056 621.403 995.687 620.975 996.227C620.595 996.715 620.095 997.095 619.523 997.33C618.952 997.565 618.329 997.647 617.716 997.568C616.782 997.445 615.833 997.594 614.982 998C614.132 998.405 613.417 999.048 612.925 999.851C612.474 1000.62 612.265 1001.51 612.325 1002.4C612.363 1003.19 612.352 1003.97 612.448 1004.87C612.773 1004.13 612.976 1003.37 613.242 1002.53C613.398 1001.86 613.712 1001.23 614.158 1000.71C614.566 1000.24 615.086 999.882 615.671 999.667C616.255 999.452 616.884 999.387 617.499 999.48C618.187 999.573 618.887 999.512 619.548 999.3C620.209 999.087 620.814 998.73 621.319 998.253C621.824 997.776 622.216 997.193 622.465 996.545C622.715 995.897 622.816 995.202 622.762 994.51C622.725 993.718 622.736 992.933 622.639 992.035C622.239 992.79 622.122 993.634 621.87 994.386L621.846 994.382ZM729.811 826.193C730.387 825.811 731.044 825.565 731.729 825.476C732.342 825.41 732.962 825.501 733.53 825.739C734.099 825.977 734.598 826.355 734.981 826.838C735.549 827.587 736.323 828.156 737.207 828.475C738.092 828.795 739.05 828.851 739.966 828.637C740.828 828.401 741.604 827.92 742.199 827.252C742.723 826.661 743.289 826.125 743.772 825.48C743.019 825.768 742.35 826.167 741.638 826.51C741.053 826.872 740.391 827.091 739.706 827.151C739.087 827.195 738.468 827.081 737.906 826.818C737.345 826.554 736.86 826.152 736.498 825.648C736.074 825.084 735.528 824.622 734.902 824.298C734.275 823.973 733.583 823.794 732.877 823.774C732.171 823.754 731.47 823.893 730.826 824.181C730.181 824.469 729.61 824.899 729.154 825.438C728.63 826.028 728.064 826.564 727.58 827.21C728.43 826.935 729.1 826.536 729.835 826.196L729.811 826.193ZM659.525 874.028C660.108 873.649 660.773 873.413 661.465 873.34C662.076 873.263 662.697 873.346 663.268 873.581C663.838 873.815 664.338 874.193 664.719 874.677C665.288 875.426 666.061 875.995 666.946 876.314C667.83 876.634 668.788 876.69 669.704 876.476C670.567 876.24 671.342 875.759 671.937 875.091C672.462 874.5 673.028 873.965 673.511 873.319C672.758 873.608 672.088 874.006 671.377 874.349C670.791 874.711 670.129 874.93 669.444 874.99C668.822 875.031 668.2 874.915 667.635 874.652C667.07 874.388 666.581 873.987 666.213 873.484C665.791 872.915 665.247 872.45 664.619 872.123C663.992 871.796 663.299 871.615 662.592 871.595C661.884 871.575 661.182 871.715 660.537 872.006C659.892 872.297 659.322 872.73 658.868 873.273C658.344 873.864 657.774 874.424 657.291 875.069C658.151 874.894 658.838 874.375 659.549 874.032L659.525 874.028ZM605.675 951.432C606.256 951.06 606.91 950.815 607.593 950.715C608.206 950.649 608.825 950.74 609.394 950.978C609.963 951.216 610.462 951.594 610.845 952.077C611.418 952.828 612.196 953.395 613.086 953.711C613.976 954.027 614.939 954.077 615.857 953.856C616.717 953.628 617.491 953.155 618.086 952.494C618.611 951.904 619.18 951.344 619.663 950.698C618.907 951.011 618.241 951.385 617.505 951.725C616.938 952.107 616.279 952.329 615.597 952.369C614.975 952.423 614.351 952.315 613.784 952.055C613.217 951.795 612.727 951.393 612.362 950.887C611.767 950.148 610.969 949.6 610.066 949.308C609.164 949.017 608.196 948.995 607.281 949.246C606.437 949.513 605.685 950.013 605.114 950.69C604.59 951.281 604.023 951.816 603.54 952.462C604.317 952.177 604.987 951.778 605.699 951.435L605.675 951.432ZM611.94 1040.51C612.517 1040.14 613.172 1039.9 613.855 1039.82C614.467 1039.75 615.088 1039.83 615.658 1040.06C616.228 1040.3 616.728 1040.67 617.11 1041.16C617.68 1041.91 618.457 1042.49 619.346 1042.81C620.236 1043.13 621.199 1043.18 622.119 1042.96C622.981 1042.73 623.757 1042.24 624.351 1041.58C624.876 1040.99 625.442 1040.45 625.925 1039.8C625.172 1040.09 624.502 1040.49 623.767 1040.83C623.19 1041.19 622.536 1041.41 621.859 1041.48C621.236 1041.52 620.612 1041.41 620.046 1041.14C619.481 1040.88 618.992 1040.48 618.627 1039.97C618.206 1039.4 617.661 1038.94 617.034 1038.61C616.407 1038.28 615.713 1038.1 615.006 1038.08C614.299 1038.06 613.596 1038.2 612.952 1038.49C612.307 1038.78 611.736 1039.22 611.283 1039.76C610.758 1040.35 610.189 1040.91 609.709 1041.53C610.586 1041.24 611.232 1040.83 611.94 1040.51ZM706.974 956.82C707.55 956.438 708.206 956.193 708.892 956.103C709.505 956.037 710.124 956.128 710.693 956.366C711.262 956.604 711.761 956.982 712.144 957.465C712.717 958.216 713.496 958.783 714.385 959.099C715.275 959.415 716.238 959.465 717.156 959.244C718.009 959.015 718.776 958.54 719.361 957.879C719.886 957.288 720.455 956.728 720.962 956.086C720.206 956.399 719.515 956.77 718.804 957.113C718.228 957.494 717.561 957.715 716.872 957.754C716.254 957.809 715.633 957.701 715.069 957.442C714.506 957.183 714.021 956.78 713.661 956.275C713.066 955.536 712.268 954.988 711.365 954.696C710.463 954.405 709.495 954.383 708.58 954.634C707.726 954.892 706.964 955.392 706.389 956.075C705.864 956.665 705.323 957.204 704.815 957.847C705.572 957.534 706.266 957.139 706.977 956.796L706.974 956.82ZM758.482 999.106C759.064 998.734 759.718 998.489 760.401 998.389C761.014 998.323 761.633 998.414 762.202 998.652C762.77 998.89 763.269 999.268 763.652 999.751C764.225 1000.5 765.004 1001.07 765.894 1001.39C766.784 1001.7 767.747 1001.75 768.665 1001.53C769.524 1001.3 770.299 1000.83 770.894 1000.17C771.419 999.578 771.985 999.042 772.468 998.396C771.715 998.685 771.045 999.083 770.309 999.423C769.733 999.785 769.079 1000.01 768.401 1000.07C767.779 1000.11 767.155 999.999 766.589 999.735C766.023 999.472 765.535 999.067 765.17 998.561C764.748 997.993 764.204 997.528 763.576 997.2C762.949 996.873 762.256 996.693 761.549 996.672C760.842 996.652 760.139 996.793 759.494 997.083C758.849 997.374 758.279 997.807 757.825 998.351C757.301 998.941 756.735 999.477 756.252 1000.12C757.08 999.82 757.784 999.353 758.486 999.082L758.482 999.106ZM660.136 1012.07C660.715 1011.69 661.37 1011.45 662.055 1011.35C662.668 1011.29 663.287 1011.38 663.856 1011.62C664.424 1011.85 664.923 1012.23 665.306 1012.72C665.879 1013.47 666.658 1014.03 667.548 1014.35C668.438 1014.67 669.401 1014.72 670.319 1014.49C671.178 1014.27 671.953 1013.79 672.548 1013.13C673.073 1012.54 673.618 1011.98 674.125 1011.34C673.369 1011.65 672.675 1012.04 671.963 1012.39C671.38 1012.75 670.717 1012.97 670.031 1013.03C669.412 1013.07 668.793 1012.96 668.231 1012.7C667.67 1012.43 667.185 1012.03 666.824 1011.53C666.229 1010.79 665.431 1010.24 664.528 1009.95C663.626 1009.66 662.658 1009.63 661.743 1009.89C660.903 1010.16 660.154 1010.66 659.576 1011.33C659.051 1011.92 658.485 1012.46 657.978 1013.1C658.779 1012.82 659.425 1012.41 660.136 1012.07ZM777.491 1063.54C778.068 1063.16 778.723 1062.93 779.406 1062.85C780.018 1062.77 780.639 1062.85 781.209 1063.09C781.779 1063.32 782.28 1063.7 782.661 1064.18C783.231 1064.94 784.008 1065.51 784.897 1065.83C785.787 1066.15 786.75 1066.21 787.67 1065.99C788.532 1065.75 789.308 1065.27 789.903 1064.6C790.427 1064.01 790.993 1063.48 791.476 1062.83C790.723 1063.12 790.053 1063.52 789.318 1063.86C788.741 1064.22 788.088 1064.44 787.41 1064.5C786.787 1064.54 786.164 1064.43 785.599 1064.17C785.034 1063.9 784.545 1063.5 784.178 1062.99C783.757 1062.43 783.212 1061.96 782.585 1061.63C781.958 1061.31 781.264 1061.13 780.557 1061.11C779.85 1061.09 779.148 1061.23 778.503 1061.52C777.858 1061.81 777.287 1062.24 776.834 1062.78C776.309 1063.37 775.74 1063.93 775.26 1064.56C776.113 1064.26 776.783 1063.86 777.491 1063.54ZM812.216 972.907C811.664 972.656 811.185 972.268 810.825 971.779C810.403 971.211 809.859 970.746 809.231 970.419C808.604 970.092 807.911 969.911 807.204 969.891C806.497 969.871 805.794 970.011 805.149 970.302C804.504 970.593 803.934 971.026 803.481 971.569C802.956 972.16 802.39 972.696 801.907 973.341C802.66 973.053 803.33 972.654 804.041 972.311C804.622 971.939 805.276 971.694 805.959 971.594C806.572 971.528 807.192 971.619 807.76 971.857C808.329 972.095 808.828 972.473 809.211 972.956C809.975 973.973 811.107 974.651 812.365 974.845L812.216 972.907ZM571.216 1011.87C571.798 1011.5 572.451 1011.25 573.134 1011.15C573.747 1011.09 574.367 1011.18 574.935 1011.42C575.504 1011.65 576.003 1012.03 576.386 1012.51C576.956 1013.27 577.733 1013.84 578.622 1014.16C579.512 1014.48 580.475 1014.54 581.395 1014.32C582.258 1014.08 583.033 1013.6 583.628 1012.93C584.152 1012.34 584.718 1011.81 585.201 1011.16C584.448 1011.45 583.779 1011.85 583.043 1012.19C582.466 1012.55 581.813 1012.77 581.135 1012.83C580.513 1012.87 579.89 1012.76 579.324 1012.5C578.759 1012.23 578.27 1011.83 577.903 1011.32C577.482 1010.76 576.937 1010.29 576.31 1009.96C575.683 1009.64 574.99 1009.46 574.282 1009.44C573.575 1009.42 572.873 1009.56 572.228 1009.85C571.583 1010.14 571.012 1010.57 570.559 1011.11C570.035 1011.71 569.465 1012.27 568.986 1012.89C569.941 1012.55 570.604 1012.2 571.316 1011.86L571.216 1011.87ZM584.452 865.627C585.024 865.236 585.683 864.99 586.371 864.911C586.985 864.833 587.608 864.918 588.179 865.157C588.749 865.396 589.247 865.78 589.622 866.273C590.195 867.023 590.974 867.591 591.864 867.907C592.754 868.222 593.717 868.273 594.635 868.051C595.488 867.822 596.255 867.348 596.84 866.686C597.368 866.072 597.934 865.536 598.441 864.894C597.688 865.182 596.994 865.577 596.283 865.921C595.709 866.306 595.041 866.528 594.35 866.561C593.733 866.612 593.114 866.502 592.551 866.243C591.989 865.984 591.503 865.584 591.14 865.083C590.545 864.344 589.747 863.795 588.844 863.504C587.942 863.212 586.974 863.191 586.059 863.442C585.211 863.7 584.453 864.19 583.871 864.858C583.343 865.473 582.801 866.012 582.294 866.654C583.147 866.355 583.841 865.96 584.552 865.617L584.452 865.627Z" fill="white"/>
<path d="M610.987 787.399C606.993 796.675 603.08 805.962 599.247 815.26C600.148 811.084 601.189 806.952 602.327 802.834C602.361 802.593 602.04 802.425 601.917 802.777C600.166 807.839 598.858 813.043 598.009 818.332C593.398 829.57 588.975 840.875 584.739 852.248C576.667 874.056 569.099 896.132 562.272 918.359C558.435 930.926 555.049 943.604 551.071 956.127C551.038 956.368 551.362 956.511 551.457 956.18C555.038 945.102 559.284 934.19 563.409 923.261C567.534 912.332 571.35 901.508 575.32 890.631C583.14 868.689 591.239 846.86 599.008 824.935C603.406 812.569 607.616 800.153 612.011 787.812C612.038 787.744 612.052 787.673 612.051 787.6C612.05 787.528 612.036 787.456 612.007 787.389C611.95 787.255 611.841 787.148 611.706 787.093C611.57 787.039 611.418 787.04 611.283 787.097C611.148 787.155 611.042 787.263 610.987 787.399Z" fill="#263238"/>
<path d="M620.569 635.635C621.335 653.634 609.152 668.776 593.352 669.454C577.552 670.132 564.146 656.077 563.308 638.067C562.47 620.058 574.704 604.899 590.501 604.245C606.297 603.591 619.803 617.635 620.569 635.635Z" fill="#455A64"/>
<path d="M629.881 636.364C630.733 656.391 617.183 673.235 599.634 673.94C582.085 674.646 567.121 659.071 566.268 639.044C565.416 619.017 578.966 602.173 596.515 601.468C614.064 600.763 629.028 616.337 629.881 636.364Z" fill="#C7C7C7"/>
<path d="M659.584 780.984C677.04 783.412 703.728 754.288 713.109 731.899C713.74 730.365 701.932 673.004 700.798 661.368C700.579 658.88 629.76 686.34 629.76 686.34C629.76 686.34 639.353 709.966 641.256 730.213C641.445 732.034 642.695 778.709 659.584 780.984Z" fill="#DD6A57"/>
<path d="M648.79 735.61C646.422 735.926 644.03 736.03 641.644 735.919C641.546 734.505 641.466 733.314 641.421 732.398C641.436 732.36 641.442 732.319 641.438 732.278C641.464 732.175 641.478 732.07 641.481 731.964C641.528 731.627 641.458 731.248 641.412 730.873C641.433 730.803 641.443 730.729 641.442 730.656L641.482 730.367C641.024 725.838 640.304 721.339 639.325 716.893C637.393 708.279 634.912 699.799 631.895 691.502C631.647 690.813 631.414 690.19 631.196 689.636L630.049 686.576L631.922 685.829L634.511 684.886L636.172 684.257L638.224 683.461L640.118 682.741L640.483 682.595L643.068 681.677L643.639 681.461L646.104 680.526L647.4 680.043L651.395 678.534L654.455 677.386L657.047 676.42L665.91 673.13L668.764 672.052L678.985 668.361L681.182 667.586L682.312 666.883L684.045 666.263L687.762 664.986L690.032 664.22C691.142 663.834 692.17 663.51 693.147 663.203C693.639 663.026 694.124 662.897 694.56 662.761C695.898 662.333 697.122 662.011 697.992 661.764L698.605 661.603C696.769 680.813 688.181 730.717 648.79 735.61Z" fill="#333333"/>
<path d="M692.901 574.147C705.404 598.228 705.625 674.402 690.526 694.25C668.64 722.961 625.995 733.227 599.885 705.361C574.587 678.371 576.072 579.159 593.581 560.358C619.341 532.776 674.395 538.614 692.901 574.147Z" fill="#DD6A57"/>
<path d="M628.131 632.312C628.161 632.095 628.517 632.537 628.511 632.758C628.389 637.878 629.117 643.779 633.774 645.459C633.919 645.479 633.903 645.772 633.734 645.748C627.934 645.04 627.058 637.201 628.131 632.312Z" fill="#263238"/>
<path d="M632.538 626.952C640.791 626.281 641.545 642.952 633.904 643.462C626.263 643.972 625.624 627.539 632.538 626.952Z" fill="#333333"/>
<path d="M599.716 634.455C599.743 634.262 599.339 634.697 599.332 634.918C599.751 640.039 599.346 645.955 594.778 647.876C594.657 647.859 594.731 648.213 594.737 648.165C600.462 647.118 600.918 639.243 599.716 634.455Z" fill="#263238"/>
<path d="M594.903 629.312C586.629 629.071 586.735 645.627 594.421 645.86C602.106 646.093 601.831 629.514 594.903 629.312Z" fill="#333333"/>
<path d="M638.727 619.038C636.522 618.505 634.349 617.85 632.216 617.076C629.813 616.697 627.606 615.524 625.945 613.746C625.533 613.09 625.347 612.318 625.414 611.546C625.482 610.775 625.799 610.047 626.318 609.472C627.529 608.514 628.973 607.894 630.501 607.674C632.03 607.455 633.589 607.645 635.021 608.225C638.104 608.955 640.807 610.802 642.607 613.409C642.992 614.025 643.189 614.74 643.173 615.467C643.157 616.194 642.929 616.9 642.516 617.498C642.104 618.096 641.525 618.561 640.852 618.835C640.179 619.109 639.44 619.179 638.727 619.038Z" fill="#333333"/>
<path d="M588.106 621.264C590.305 620.713 592.473 620.047 594.602 619.267C596.99 618.866 599.181 617.694 600.841 615.932C601.253 615.276 601.435 614.502 601.36 613.731C601.285 612.96 600.956 612.236 600.426 611.671C599.215 610.712 597.769 610.094 596.239 609.881C594.708 609.668 593.149 609.868 591.722 610.461C588.629 611.188 585.928 613.061 584.16 615.701C583.789 616.321 583.606 617.036 583.633 617.759C583.661 618.482 583.899 619.18 584.317 619.77C584.736 620.36 585.317 620.815 585.989 621.081C586.662 621.346 587.397 621.409 588.106 621.264Z" fill="#333333"/>
<path d="M636.303 679.581C635.144 680.845 633.997 682.554 632.145 682.788C630.232 682.846 628.329 682.497 626.561 681.765C626.525 681.744 626.483 681.736 626.442 681.744C626.401 681.751 626.365 681.774 626.339 681.806C626.313 681.839 626.3 681.88 626.303 681.921C626.305 681.963 626.323 682.002 626.352 682.031C627.131 683.005 628.159 683.75 629.328 684.185C630.497 684.62 631.762 684.73 632.988 684.503C634.02 684.185 634.934 683.569 635.614 682.732C636.295 681.894 636.712 680.874 636.813 679.8C636.881 679.489 636.474 679.408 636.303 679.581Z" fill="#263238"/>
<path d="M630.21 664.552C628.997 666.633 627.367 668.441 625.423 669.863C623.478 671.284 621.261 672.288 618.91 672.812C616.866 673.307 614.76 673.503 612.66 673.393C612.254 673.372 611.851 673.316 611.454 673.225C611.082 673.198 610.711 673.147 610.345 673.071C610.069 673.033 609.812 672.907 609.613 672.711C609.414 672.515 609.284 672.26 609.243 671.984C609.253 671.813 609.277 671.644 609.313 671.477L609.374 671.043C609.087 667.096 609.172 661.184 609.172 661.184C607.76 661.971 600.568 665.616 600.584 663.553C600.81 646.38 601.042 627.389 604.88 610.398C604.919 610.295 604.992 610.208 605.087 610.152C605.182 610.096 605.293 610.074 605.403 610.089C605.512 610.104 605.613 610.156 605.689 610.236C605.765 610.316 605.811 610.419 605.821 610.529C606.257 627.008 603.705 643.415 603.983 659.971C606.538 658.629 609.271 657.661 612.101 657.093C612.679 657.174 611.689 668.711 611.961 670.469L611.934 670.662C618.594 671.195 623.502 668.953 629.743 664.192C630.076 663.747 630.497 664.076 630.21 664.552Z" fill="#263238"/>
<path d="M614.896 671.271C617.181 674.006 620.13 676.108 623.46 677.377C625.303 677.994 627.292 678.022 629.152 677.456C633.185 676.198 633.12 672.429 632.209 669.254C631.72 667.567 631.03 665.944 630.153 664.421C625.929 668.275 620.583 670.675 614.896 671.271Z" fill="#263238"/>
<path d="M623.473 677.305C625.315 677.922 627.305 677.949 629.164 677.383C633.198 676.126 633.132 672.356 632.222 669.182C627.828 669.849 623.65 673.028 623.473 677.305Z" fill="#FF99BA"/>
<path opacity="0.2" d="M685.738 605.128C689.829 612.112 698.58 628.715 702.243 629.421C701.817 604.562 698.574 582.458 690.454 569.801C687.094 564.573 682.807 560.004 677.804 556.318C678.31 562.926 681.356 597.931 685.738 605.128Z" fill="#263238"/>
<path d="M615.316 580.267C617.932 583.505 621.334 586.018 625.198 587.567C629.062 589.116 633.258 589.648 637.386 589.112C641.613 588.571 645.631 586.956 649.056 584.42C652.481 581.885 655.198 578.513 656.949 574.628C656.956 574.577 656.983 574.531 657.025 574.5C657.066 574.469 657.118 574.455 657.169 574.462C657.22 574.469 657.266 574.496 657.297 574.538C657.329 574.579 657.342 574.631 657.335 574.682C655.839 578.904 653.222 582.64 649.765 585.489C646.307 588.338 642.14 590.192 637.709 590.853C633.315 591.251 628.894 590.486 624.889 588.635C620.884 586.784 617.436 583.911 614.893 580.306C614.917 580.275 614.948 580.249 614.983 580.23C615.018 580.211 615.056 580.199 615.096 580.195C615.136 580.191 615.176 580.196 615.213 580.208C615.251 580.22 615.286 580.24 615.316 580.267Z" fill="#263238"/>
<path d="M642.136 520.659C656.271 521.347 669.046 529.514 673.954 539.29C676.683 544.84 677.451 551.15 676.134 557.192C676.1 557.433 675.594 557.362 675.628 557.121C676.066 551.757 675.055 546.373 672.702 541.532C670.349 536.691 666.74 532.571 662.25 529.601C657.333 526.18 651.688 523.948 645.76 523.081C639.833 522.214 633.785 522.736 628.094 524.605C622.537 526.3 617.77 529.926 614.653 534.828C614.362 535.328 613.307 534.96 613.55 534.453C617.546 525.694 629.34 520.059 642.136 520.659Z" fill="#263238"/>
<path d="M559.202 549.187C561.697 542.261 566.564 536.442 572.94 532.762C581.741 527.62 591.55 528.665 601.232 529.913C601.497 529.95 601.464 530.363 601.175 530.323C592.912 529.297 584.461 528.736 576.746 532.431C570.35 535.444 565.197 540.582 562.165 546.969C559.251 553.54 558.8 560.94 560.894 567.816C562.989 574.692 567.489 580.584 573.571 584.415C577.133 586.527 581.09 587.887 585.197 588.412C589.305 588.937 593.476 588.615 597.455 587.466C597.761 587.386 597.993 587.836 597.66 587.937C592.275 589.712 586.501 589.953 580.987 588.631C575.473 587.309 570.436 584.478 566.44 580.455C562.445 576.431 559.649 571.374 558.366 565.851C557.084 560.327 557.364 554.556 559.178 549.183L559.202 549.187Z" fill="#263238"/>
<path d="M698.469 591.192C698.469 591.192 712.453 566.101 701.557 551.314C695.357 542.881 674.255 543.51 674.255 543.51C671.54 539.28 668.015 535.629 663.882 532.768C659.75 529.906 655.091 527.892 650.176 526.84C632.605 522.406 611.372 532.282 611.372 532.282C611.372 532.282 594.793 522.308 578.868 530.957C556.693 543.013 558.728 576.452 580.534 587.718C595.884 595.58 617.194 582.322 617.194 582.322C619.219 582.604 639.662 595.548 655.727 577.407C655.727 577.407 668.202 588.974 679.762 581.316C681.491 584.681 684.213 587.434 687.559 589.201C690.906 590.967 694.714 591.663 698.469 591.192Z" fill="#1A1A1A"/>
<path d="M635.543 655.732C632.665 655.518 629.857 654.738 627.281 653.436C624.706 652.133 622.413 650.335 620.534 648.144C618.655 645.953 617.228 643.412 616.334 640.668C615.441 637.923 615.098 635.029 615.326 632.152C615.638 628.066 617.09 624.15 619.516 620.848C621.942 617.546 625.245 614.99 629.051 613.471C632.857 611.952 637.012 611.531 641.045 612.256C645.078 612.98 648.827 614.821 651.867 617.569C654.906 620.318 657.114 623.863 658.239 627.803C659.364 631.743 659.362 635.92 658.233 639.859C657.103 643.798 654.892 647.341 651.85 650.086C648.808 652.831 645.057 654.668 641.023 655.388C639.218 655.735 637.377 655.85 635.543 655.732ZM618.295 632.368C618.009 636.117 618.84 639.866 620.685 643.142C622.529 646.417 625.303 649.073 628.656 650.773C632.01 652.472 635.791 653.14 639.524 652.69C643.256 652.241 646.772 650.696 649.626 648.249C652.48 645.802 654.545 642.565 655.559 638.945C656.574 635.325 656.492 631.485 655.325 627.912C654.158 624.338 651.958 621.191 649.002 618.867C646.047 616.544 642.469 615.149 638.721 614.858C637.142 614.744 635.555 614.82 633.995 615.086C629.834 615.822 626.035 617.918 623.194 621.046C620.352 624.174 618.629 628.156 618.295 632.368Z" fill="#FFC727"/>
<path d="M589.219 658.163C580.228 658.657 572.347 649.229 571.693 637.144C571.287 631.679 572.605 626.223 575.46 621.545C576.568 619.466 578.194 617.707 580.18 616.439C582.167 615.172 584.446 614.437 586.799 614.308C589.152 614.178 591.498 614.657 593.612 615.698C595.726 616.74 597.535 618.309 598.866 620.253C602.217 624.581 604.132 629.849 604.341 635.319C604.961 646.761 598.911 656.684 590.643 657.992C590.172 658.079 589.696 658.136 589.219 658.163ZM577.941 623.144C575.408 627.294 574.244 632.137 574.615 636.985C575.201 647.439 581.68 655.64 589.06 655.24C596.439 654.841 601.974 645.976 601.415 635.502C601.233 630.644 599.549 625.961 596.594 622.1C595.492 620.577 594.041 619.341 592.362 618.496C590.683 617.651 588.826 617.221 586.946 617.244C586.577 617.248 586.21 617.287 585.848 617.361C584.202 617.725 582.649 618.427 581.287 619.422C579.926 620.417 578.787 621.685 577.941 623.144Z" fill="#FFC727"/>
<path d="M616.206 634.635L617.981 632.301C614.487 629.677 606.522 626.332 601.539 632.472L603.735 634.35C608.308 628.866 615.892 634.419 616.206 634.635Z" fill="#FFC727"/>
<path d="M714.24 634.874L716.782 633.384C716.086 632.206 709.785 621.843 703.172 621.144C697.018 620.509 657.913 626.352 656.254 626.613L656.685 629.524C667.909 627.816 698.093 623.559 702.866 624.051C707.223 624.534 712.546 632.033 714.24 634.874Z" fill="#FFC727"/>
<path d="M688.291 637.139C688.291 637.139 701.065 610.503 712.906 614.608C724.747 618.713 717.881 655.534 705.919 662.375C704.446 663.358 702.79 664.034 701.05 664.36C699.31 664.687 697.522 664.658 695.793 664.275C694.064 663.892 692.431 663.164 690.991 662.133C689.551 661.102 688.335 659.791 687.416 658.277L688.291 637.139Z" fill="#DD6A57"/>
<path d="M710.682 625.114C710.875 625.14 710.969 625.35 710.808 625.45C702.457 630.532 699.131 639.606 697.247 648.732C699.364 644.996 702.674 642.581 707.596 645.01C707.885 645.051 707.694 645.54 707.522 645.541C705.867 645.3 704.179 645.577 702.688 646.333C701.197 647.089 699.976 648.288 699.192 649.765C697.904 652.243 696.889 654.855 696.167 657.553C695.875 658.422 694.376 658.238 694.528 657.325L694.558 657.108C692.412 645.676 698.641 628.281 710.682 625.114Z" fill="#263238"/>
<path d="M704.685 617.889C704.685 617.889 708.378 578.61 697.452 556.617C685.277 532.115 645.164 511.273 611.458 532.368C611.458 532.368 656.88 527.06 681.848 558.011C693.313 572.239 691.529 618.64 691.529 618.64L704.685 617.889Z" fill="#CCCCCC"/>
<path d="M697.768 674.232C715.341 674.884 730.191 659.175 730.935 639.142C731.679 619.11 718.037 602.341 700.463 601.688C682.889 601.035 668.04 616.745 667.296 636.778C666.551 656.81 680.194 673.579 697.768 674.232Z" fill="#CCCCCC"/>
<path d="M676.632 635.96C675.969 653.982 688.226 669.057 704.023 669.632C719.821 670.207 733.164 656.087 733.848 638.093C734.532 620.099 722.251 605.02 706.433 604.418C690.615 603.815 677.292 617.963 676.632 635.96Z" fill="#666666"/>
<path d="M756.858 754.525C796.625 811.079 881.68 1014.37 840.824 1043.94C799.969 1073.5 606.447 999.049 553.979 964.544C538.353 954.26 616.356 858.882 636.346 859.18C652.976 859.428 731.283 909.251 734.365 904.764C737.868 899.721 723.721 862.189 713.716 786.743C702.153 699.874 739.293 729.544 756.858 754.525Z" fill="#DD6A57"/>
<path d="M557.976 814.042C518.156 802.753 506.184 805.954 477.649 778.563C458.912 760.595 439.397 764.837 447.927 790.454C461.936 832.342 510.266 857.718 529.547 861.702L557.976 814.042Z" fill="#DD6A57"/>
<path d="M660.44 868.158C660.44 868.158 618.321 836.469 577.078 820.213C548.531 808.992 483.749 791.454 411.598 847.755C394.475 861.128 379.549 892.282 415.431 880.633C440.918 872.331 454.565 859.384 470.294 857.271C470.294 857.271 456.034 899.184 470.07 915.785C482.358 930.321 495.663 943.966 509.885 956.616C512.793 954.538 515.57 952.281 518.199 949.858C518.199 949.858 532.797 964.178 563.804 965.492L660.44 868.158Z" fill="#DD6A57"/>
<path d="M548.121 813.852C532.993 819.244 501.096 831.226 478.416 850.093C453.234 871.046 410.346 918.219 425.993 936.666C437.484 950.185 455.445 933.61 455.445 933.61C455.445 933.61 441.843 956.837 454.886 966.787C466.78 975.814 479.881 962.201 479.881 962.201C479.881 962.201 474.062 977.712 487.189 984.232C502.982 992.082 512.624 958.276 535.49 952.387C540.611 951.084 548.121 813.852 548.121 813.852Z" fill="#DD6A57"/>
<path d="M504.992 873.01C491.669 880.448 465.461 905.068 455.318 932.929C455.083 933.56 455.429 934.076 455.772 933.558C469.737 911.533 486.336 891.293 505.2 873.285C505.32 873.129 505.151 872.934 504.992 873.01Z" fill="#263238"/>
<path d="M525.434 899.055C514.545 906.659 488.723 933.274 479.392 961.839C479.181 962.473 479.579 962.971 479.9 962.426C492.69 939.721 508.004 918.534 525.551 899.268C525.764 899.15 525.567 898.975 525.434 899.055Z" fill="#263238"/>
<path d="M470.304 857.002C456.524 859.067 447.014 864.356 434.746 870.564C428.724 873.716 422.531 876.531 416.197 878.995C410.39 881.161 401.857 884.374 396.718 879.088C393.887 876.113 394.589 871.418 395.809 867.95C397.148 863.937 399.336 860.26 402.224 857.168C402.368 857.016 402.109 856.759 401.965 856.911C399.269 859.58 396.967 862.62 395.13 865.939C393.24 868.985 392.318 872.534 392.486 876.115C393.433 883.62 401.9 885.83 408.255 884.674C412.079 883.854 415.811 882.652 419.396 881.087C422.861 879.676 426.246 878.132 429.597 876.484C436.484 873.091 443.176 869.328 450.021 865.88C456.652 862.643 463.487 859.842 470.482 857.494C470.547 857.47 470.6 857.422 470.629 857.359C470.659 857.296 470.662 857.224 470.639 857.159C470.615 857.094 470.567 857.041 470.504 857.011C470.441 856.982 470.369 856.979 470.304 857.002Z" fill="#263238"/>
<path d="M436.099 899.73C440.573 892.659 463.487 863.796 470.528 857.353C470.556 857.319 470.571 857.277 470.572 857.233C470.573 857.189 470.559 857.147 470.533 857.112C470.507 857.077 470.469 857.052 470.427 857.041C470.385 857.03 470.34 857.033 470.3 857.051C458.619 865.405 438.418 889.066 433.4 896.872C428.382 904.678 422.572 914.463 421.298 923.626C419.373 937.466 428.173 941.344 431.479 942.492C435.402 943.785 439.649 943.69 443.51 942.224C448.072 940.221 452.18 937.314 455.587 933.679C455.758 933.506 455.53 933.204 455.335 933.373C449.754 938.152 441.074 942.426 433.712 940.394C432.073 940.004 430.528 939.29 429.168 938.295C427.809 937.3 426.661 936.043 425.793 934.598C424.207 930.985 423.97 926.923 425.124 923.15C427.42 914.775 431.132 906.854 436.099 899.73Z" fill="#263238"/>
<path d="M479.392 961.839C477.235 963.21 472.482 968.399 466.018 968.753C463.699 969.05 461.342 968.778 459.152 967.959C456.962 967.141 455.004 965.801 453.448 964.055C450.677 960.221 449.514 955.455 450.208 950.775C451.546 944.98 453.323 939.295 455.522 933.769C455.559 933.504 455.311 933.346 455.201 933.601C452.055 939.275 449.772 945.385 448.428 951.732C447.988 954.257 448.061 956.845 448.642 959.341C449.224 961.838 450.303 964.191 451.814 966.261C453.466 968.312 455.651 969.866 458.13 970.753C460.609 971.64 463.285 971.825 465.862 971.287C468.401 970.707 476.931 966.805 479.858 962.198C479.947 962.088 479.498 961.78 479.392 961.839Z" fill="#263238"/>
<path d="M534.534 949.722C532.207 950.853 530.011 952.237 527.988 953.85C525.773 955.459 523.621 957.151 521.537 958.876C517.317 962.385 513.475 966.323 510.072 970.628C506.621 974.94 503.313 979.814 498.303 982.435C495.911 983.784 493.155 984.343 490.427 984.035C487.699 983.726 485.137 982.564 483.107 980.715C480.983 978.669 479.625 975.955 479.261 973.028C478.786 969.838 478.938 966.587 479.708 963.455C479.715 963.404 479.701 963.352 479.67 963.311C479.639 963.27 479.593 963.243 479.541 963.236C479.49 963.228 479.438 963.242 479.397 963.273C479.356 963.304 479.329 963.35 479.322 963.402C478.428 966.157 477.803 968.992 477.456 971.867C477.341 974.509 477.926 977.133 479.151 979.476C480.501 981.799 482.466 983.705 484.829 984.983C487.192 986.262 489.863 986.863 492.546 986.722C498.48 986.466 503.303 982.713 507.116 978.45C511.316 973.701 514.984 968.534 519.429 963.966C521.754 961.561 524.058 959.129 526.556 956.895C529.054 954.662 532.073 952.575 534.625 950.128C534.993 949.958 534.844 949.618 534.534 949.722Z" fill="#263238"/>
<path d="M549.072 963.787C541.631 961.905 534.387 959.317 527.437 956.059C527.196 956.026 526.802 956.561 527.002 956.712C530.289 958.809 533.8 960.534 537.47 961.854C541.164 963.203 545.039 963.99 548.967 964.19C549.163 964.193 549.31 963.845 549.072 963.787Z" fill="#263238"/>
<path d="M804.898 951.833C783.782 932.814 759.933 917.069 734.145 905.126C726.861 901.655 719.451 898.56 712.052 895.392C712.013 895.401 711.977 895.421 711.95 895.45C711.923 895.48 711.906 895.516 711.901 895.556C711.895 895.595 711.902 895.635 711.92 895.671C711.938 895.706 711.966 895.735 712.001 895.754C724.822 901.803 737.289 908.575 749.341 916.038C761.431 923.356 773.33 930.877 785.036 938.601C791.797 943.006 798.128 947.672 804.642 952.265C804.669 952.298 804.704 952.325 804.743 952.342C804.783 952.36 804.826 952.367 804.869 952.364C804.912 952.361 804.954 952.347 804.991 952.325C805.028 952.302 805.058 952.271 805.08 952.234C805.103 952.197 805.115 952.155 805.118 952.111C805.12 952.068 805.112 952.025 805.094 951.986C805.076 951.947 805.049 951.912 805.015 951.886C804.981 951.859 804.941 951.841 804.898 951.833Z" fill="#263238"/>
<path d="M836.186 885.892L723.263 866.353C723.263 866.353 709.928 807.428 708.827 756.496C707.726 705.564 746.407 726.453 781.571 785.71C816.734 844.968 836.186 885.892 836.186 885.892Z" fill="#3705A0"/>
<path d="M741.658 826.514C741.073 826.875 740.411 827.095 739.726 827.155C739.107 827.199 738.488 827.084 737.926 826.821C737.365 826.558 736.88 826.155 736.519 825.652C736.094 825.087 735.549 824.626 734.922 824.301C734.295 823.977 733.603 823.798 732.897 823.778C732.192 823.758 731.49 823.897 730.846 824.185C730.201 824.473 729.63 824.902 729.174 825.441C728.65 826.032 728.084 826.568 727.601 827.213C728.354 826.925 729.023 826.526 729.759 826.186C730.335 825.804 730.992 825.559 731.677 825.47C732.29 825.404 732.91 825.494 733.478 825.732C734.047 825.97 734.546 826.349 734.929 826.832C735.497 827.581 736.27 828.15 737.155 828.469C738.04 828.788 738.998 828.844 739.914 828.631C740.776 828.395 741.552 827.913 742.147 827.245C742.671 826.655 743.237 826.119 743.72 825.473C743.04 825.772 742.37 826.17 741.658 826.514ZM780.293 810.627C780.231 809.832 780.242 809.047 780.146 808.149C779.821 808.89 779.618 809.648 779.352 810.496C779.212 811.168 778.923 811.8 778.505 812.345C778.122 812.829 777.622 813.206 777.051 813.441C776.481 813.676 775.859 813.76 775.247 813.686C774.309 813.557 773.355 813.704 772.5 814.109C771.645 814.514 770.926 815.159 770.432 815.966C769.991 816.739 769.783 817.623 769.832 818.512C769.869 819.304 769.858 820.089 769.955 820.987C770.279 820.245 770.483 819.487 770.772 818.643C770.916 817.973 771.223 817.349 771.664 816.825C772.072 816.355 772.593 815.996 773.177 815.781C773.761 815.566 774.39 815.502 775.006 815.594C775.694 815.682 776.392 815.617 777.052 815.404C777.712 815.19 778.316 814.833 778.821 814.358C779.327 813.883 779.721 813.303 779.975 812.657C780.23 812.012 780.338 811.319 780.293 810.627ZM749.111 742.707C749.049 742.976 749.01 743.25 748.997 743.527C749.062 744.297 749.027 745.079 749.137 745.881C749.461 745.139 749.665 744.381 749.938 743.657C749.768 743.29 749.464 743.002 749.16 742.713L749.111 742.707ZM816.836 848.3C815.99 848.162 815.233 847.695 814.731 847C814.158 846.249 813.379 845.681 812.489 845.366C811.599 845.05 810.637 845 809.719 845.221C808.859 845.449 808.085 845.922 807.489 846.582C806.962 847.197 806.395 847.733 805.912 848.379C806.665 848.09 807.335 847.692 808.071 847.351C808.638 846.97 809.297 846.748 809.979 846.707C810.6 846.658 811.223 846.768 811.789 847.028C812.355 847.287 812.846 847.687 813.214 848.19C813.743 848.852 814.436 849.365 815.225 849.677C816.014 849.99 816.87 850.091 817.71 849.97L816.836 848.3ZM746.192 780.839C745.519 780.683 744.889 780.377 744.35 779.944C743.884 779.535 743.528 779.014 743.317 778.43C743.106 777.846 743.046 777.219 743.143 776.606C743.247 775.661 743.071 774.706 742.639 773.86C742.206 773.014 741.535 772.313 740.709 771.843C739.921 771.438 739.037 771.255 738.152 771.315C737.357 771.377 736.572 771.366 735.674 771.462C736.419 771.762 737.177 771.966 738.022 772.256C738.701 772.397 739.34 772.688 739.894 773.106C740.374 773.492 740.749 773.993 740.984 774.563C741.218 775.133 741.305 775.753 741.235 776.365C741.106 777.302 741.253 778.257 741.658 779.112C742.063 779.967 742.708 780.685 743.515 781.18C744.288 781.621 745.172 781.829 746.061 781.78C746.832 781.715 747.614 781.75 748.416 781.64C747.747 781.326 746.988 781.122 746.264 780.849L746.192 780.839ZM787.334 867.448C786.663 867.296 786.04 866.982 785.519 866.532C785.044 866.128 784.681 865.608 784.465 865.023C784.25 864.437 784.189 863.806 784.288 863.19C784.382 862.502 784.32 861.802 784.108 861.141C783.896 860.48 783.538 859.875 783.061 859.37C782.585 858.866 782.001 858.474 781.353 858.224C780.706 857.975 780.01 857.873 779.318 857.927C778.523 857.989 777.741 857.954 776.843 858.05C777.585 858.374 778.343 858.578 779.187 858.868C779.863 858.997 780.497 859.287 781.036 859.715C781.523 860.094 781.903 860.595 782.138 861.166C782.374 861.738 782.456 862.361 782.377 862.973C782.253 863.907 782.403 864.857 782.808 865.707C783.213 866.558 783.857 867.272 784.66 867.764C785.425 868.224 786.312 868.441 787.203 868.388C787.998 868.327 788.783 868.338 789.681 868.241C788.915 867.914 788.157 867.71 787.406 867.458L787.334 867.448Z" fill="white"/>
<path d="M727.975 866.614C727.348 866.527 723.467 865.274 723.443 865.271C723.358 863.76 720.152 839.448 719.148 834.123C717.145 823.251 714.489 812.485 711.977 801.739C711.949 801.682 711.904 801.635 711.848 801.606C711.791 801.577 711.727 801.567 711.664 801.578C711.601 801.588 711.544 801.619 711.5 801.665C711.457 801.712 711.43 801.771 711.423 801.834C712.758 810.966 713.942 820.127 715.35 829.269C714.728 827.904 714.118 826.64 713.461 825.172C712.305 822.357 711.33 819.468 710.276 816.618C710.251 816.567 710.209 816.526 710.156 816.503C710.104 816.479 710.045 816.475 709.99 816.491C709.935 816.507 709.887 816.542 709.856 816.589C709.824 816.637 709.809 816.694 709.815 816.751C710.518 820.597 711.707 824.339 713.354 827.885C714.065 829.406 714.869 830.88 715.764 832.3L716.109 834.585C717.014 839.921 721.784 866.416 722.215 866.501L727.688 867.262C728.157 867.426 728.264 866.654 727.975 866.614Z" fill="#263238"/>
<path d="M820.845 861.368C796.651 856.135 772.026 852.587 747.426 849.559C740.453 848.687 733.463 847.986 726.459 847.454C726.426 847.462 726.396 847.48 726.373 847.505C726.35 847.531 726.336 847.562 726.331 847.596C726.326 847.63 726.332 847.664 726.347 847.695C726.362 847.725 726.386 847.751 726.415 847.767C738.573 850.122 750.802 851.97 763.041 853.918C775.281 855.866 787.589 857.676 799.902 859.266C806.846 860.232 813.807 861.077 820.782 861.826C820.832 861.817 820.878 861.792 820.914 861.755C820.949 861.718 820.972 861.671 820.979 861.62C820.986 861.569 820.977 861.517 820.953 861.472C820.929 861.427 820.891 861.39 820.845 861.368Z" fill="#263238"/>
<path d="M396.817 1024.51L414.129 1026.91L415.702 1015.6L398.39 1013.2L396.817 1024.51Z" fill="#808080"/>
<path d="M374.469 1020.64L391.781 1023.04L393.354 1011.74L376.042 1009.33L374.469 1020.64Z" fill="#808080"/>
<path d="M352.103 1016.76L369.415 1019.17L370.988 1007.86L353.676 1005.45L352.103 1016.76Z" fill="#808080"/>
<path d="M329.76 1012.89L347.072 1015.3L348.645 1003.99L331.333 1001.59L329.76 1012.89Z" fill="#808080"/>
<path d="M307.389 1009.02L324.701 1011.43L326.274 1000.12L308.961 997.713L307.389 1009.02Z" fill="#808080"/>
<path d="M285.046 1005.15L302.358 1007.56L303.931 996.251L286.618 993.843L285.046 1005.15Z" fill="#808080"/>
<path d="M263.645 1001.41L280.957 1003.82L282.53 992.513L265.217 990.105L263.645 1001.41Z" fill="#808080"/>
<path d="M241.302 997.544L258.614 999.952L260.187 988.643L242.874 986.235L241.302 997.544Z" fill="#808080"/>
<path d="M218.935 993.671L236.247 996.078L237.82 984.77L220.508 982.362L218.935 993.671Z" fill="#808080"/>
<path d="M212.952 1005.57L418.432 1034.15L420.343 1020.4L215.661 986.088L212.952 1005.57Z" fill="#4D4D4D"/>
<path d="M19.9611 923.428L359.165 970.605L340.351 710.557L1.12329 663.377L19.9611 923.428Z" fill="#808080"/>
<path d="M7.39967 921.681L346.628 968.861L327.79 708.81L-11.4141 661.633L7.39967 921.681Z" fill="#4D4D4D"/>
<path d="M139.353 796.399C139.589 802.294 141.841 807.93 145.734 812.364C149.627 816.798 154.925 819.76 160.74 820.756C163.366 821.207 166.059 821.056 168.618 820.316C171.177 819.575 173.535 818.265 175.515 816.482C177.494 814.699 179.044 812.491 180.047 810.023C181.051 807.555 181.482 804.892 181.307 802.234C181.059 796.342 178.801 790.713 174.91 786.282C171.02 781.851 165.73 778.885 159.92 777.876C157.295 777.426 154.601 777.576 152.042 778.317C149.483 779.057 147.125 780.368 145.146 782.151C143.166 783.933 141.617 786.142 140.613 788.61C139.61 791.077 139.179 793.74 139.353 796.399Z" fill="#333333"/>
<path d="M94.1695 1000.97L260.998 1024.17L262.799 1011.22L96.7214 982.621L94.1695 1000.97Z" fill="#4D4D4D"/>
<path d="M48.818 994.638L138.393 1007.1L212.009 873.11L122.434 860.652L48.818 994.638Z" fill="#4D4D4D"/>
<path d="M34.0623 992.586L123.637 1005.04L197.278 871.061L107.703 858.603L34.0623 992.586Z" fill="#333333"/>
<path d="M422.669 1050.17L594.682 1074.1C609.366 1076.14 593.936 1031.4 542.596 1007.86C491.257 984.331 407.85 1032.14 422.669 1050.17Z" fill="#4D4D4D"/>
<path d="M490.183 1059.56C489.729 1054.85 488.959 1050.18 487.876 1045.58C486.805 1041.03 485.343 1036.58 483.506 1032.29C481.714 1027.98 479.428 1023.9 476.693 1020.13L474.617 1017.38L472.252 1014.77C470.793 1012.9 468.843 1011.54 467.194 1009.79C471.372 1012.2 475.097 1015.32 478.2 1019.01C481.343 1022.72 483.897 1026.89 485.772 1031.37C487.647 1035.83 488.987 1040.5 489.762 1045.27C490.523 1050 490.665 1054.8 490.183 1059.56Z" fill="#263238"/>
<path d="M475.314 1016.97C472.728 1017.88 470.277 1018.72 467.771 1019.77C465.265 1020.83 462.758 1021.71 460.304 1022.74C455.392 1024.84 450.501 1026.96 445.804 1029.45C441.056 1031.82 436.548 1034.64 432.343 1037.88C430.256 1039.49 428.352 1041.33 426.665 1043.35C424.916 1045.37 423.531 1047.67 422.573 1050.16C423.103 1047.47 424.169 1044.92 425.706 1042.66C427.269 1040.4 429.075 1038.32 431.091 1036.45C435.195 1032.81 439.755 1029.73 444.656 1027.28C454.319 1022.38 464.636 1018.91 475.29 1016.96L475.314 1016.97Z" fill="#263238"/>
<path d="M759.537 995.002L731.46 1121.95L660.86 1112.13L668.491 982.339L759.537 995.002Z" fill="#783BF9"/>
<path opacity="0.1" d="M759.537 995.002L731.46 1121.95L660.86 1112.13L668.491 982.339L759.537 995.002Z" fill="white"/>
<path d="M767.224 984.273L663.423 969.836L660.821 988.547L764.622 1002.98L767.224 984.273Z" fill="#4D4D4D"/>
<path d="M760.111 983.283L670.535 970.825L678.692 950.528L757.803 961.53L760.111 983.283Z" fill="#333333"/>
<path d="M729.452 1057.4C727.135 1074.06 714.286 1086.04 700.736 1084.15C687.185 1082.27 678.092 1067.24 680.409 1050.58C682.726 1033.92 695.603 1021.92 709.129 1023.8C722.656 1025.68 731.77 1040.74 729.452 1057.4Z" fill="white"/>
</g>
</svg>
